<svg width="300" height="300" viewBox="0 0 300 300" fill="none" xmlns="http://www.w3.org/2000/svg">
<path d="M79.1176 108.171C94.693 106.275 105.783 92.1118 103.887 76.5364C101.991 60.9609 87.8275 49.8714 72.252 51.7673C56.6766 53.6632 45.5871 67.8265 47.4829 83.4019C49.3788 98.9774 63.5421 110.067 79.1176 108.171Z" fill="#EBEBEB"/>
<path d="M91.024 95.3086C99.4945 86.8382 99.4945 73.1048 91.024 64.6343C82.5535 56.1639 68.8202 56.1639 60.3497 64.6343C51.8792 73.1048 51.8792 86.8382 60.3497 95.3086C68.8202 103.779 82.5535 103.779 91.024 95.3086Z" fill="white"/>
<path d="M75.684 95.472C84.2433 95.472 91.182 88.5333 91.182 79.974C91.182 71.4147 84.2433 64.476 75.684 64.476C67.1247 64.476 60.186 71.4147 60.186 79.974C60.186 88.5333 67.1247 95.472 75.684 95.472Z" fill="#EBEBEB"/>
<path d="M77.6732 88.3032C82.2769 87.209 85.1219 82.5899 84.0277 77.9862C82.9335 73.3824 78.3144 70.5374 73.7107 71.6316C69.1069 72.7258 66.2619 77.3449 67.3561 81.9487C68.4503 86.5524 73.0694 89.3974 77.6732 88.3032Z" fill="white"/>
<path d="M71.8141 79.974C71.8153 80.7392 72.0433 81.4868 72.4692 82.1224C72.8952 82.758 73.5 83.2531 74.2073 83.5451C74.9145 83.8371 75.6924 83.9129 76.4428 83.7629C77.1931 83.6129 77.8821 83.2439 78.4227 82.7024C78.9633 82.1609 79.3313 81.4713 79.4802 80.7208C79.629 79.9703 79.552 79.1924 79.2589 78.4856C78.9658 77.7788 78.4698 77.1748 77.8335 76.7498C77.1972 76.3248 76.4492 76.098 75.6841 76.098C75.1754 76.098 74.6716 76.1983 74.2017 76.3932C73.7318 76.588 73.3049 76.8736 72.9455 77.2336C72.586 77.5936 72.3011 78.021 72.107 78.4912C71.9128 78.9614 71.8133 79.4653 71.8141 79.974Z" fill="#EBEBEB"/>
<path d="M36.8849 40.2863L36.0024 41.1688L72.7183 77.8846L73.6007 77.0022L36.8849 40.2863Z" fill="#A6A6A6"/>
<path d="M70.884 78.684L75.684 79.974L74.4 75.174L70.884 78.684Z" fill="#A6A6A6"/>
<path d="M30.3 38.34L37.182 45.222L42.582 46.872L40.932 41.472L34.05 34.584L35.7 39.984L30.3 38.34Z" fill="#A6A6A6"/>
<path d="M202.842 33.234L204.834 36.204L208.278 37.182L206.07 39.99L206.202 43.566L202.842 42.336L199.488 43.566L199.62 39.99L197.412 37.182L200.85 36.204L202.842 33.234Z" fill="#EBEBEB"/>
<path d="M218.202 33.234L220.194 36.204L223.632 37.182L221.424 39.99L221.556 43.566L218.202 42.336L214.848 43.566L214.98 39.99L212.772 37.182L216.21 36.204L218.202 33.234Z" fill="#EBEBEB"/>
<path d="M233.556 33.234L235.548 36.204L238.986 37.182L236.778 39.99L236.916 43.566L233.556 42.336L230.202 43.566L230.334 39.99L228.126 37.182L231.564 36.204L233.556 33.234Z" fill="#EBEBEB"/>
<path d="M248.916 33.234L250.908 36.204L254.346 37.182L252.138 39.99L252.27 43.566L248.916 42.336L245.556 43.566L245.694 39.99L243.486 37.182L246.924 36.204L248.916 33.234Z" fill="#EBEBEB"/>
<path d="M260.598 43.998L260.748 40.092L258.348 37.014L262.11 35.946L264.288 32.694L266.472 35.946L270.234 37.014L267.834 40.092L267.978 43.998L264.306 42.654L260.598 43.998ZM264.27 42L267.312 43.116L267.192 39.882L269.19 37.332L266.076 36.45L264.276 33.762L262.476 36.45L259.362 37.332L261.36 39.882L261.24 43.116L264.27 42Z" fill="#EBEBEB"/>
<path d="M264.27 42.336V33.234L262.278 36.204L258.84 37.182L261.048 39.99L260.916 43.566L264.27 42.336Z" fill="#EBEBEB"/>
<path fill-rule="evenodd" clip-rule="evenodd" d="M245.094 158.634C244.332 158.16 243.666 157.47 242.652 157.572C242.262 157.614 242.346 157.29 242.346 157.074C242.346 153.25 242.33 149.43 242.298 145.614C242.298 145.338 242.298 145.104 242.616 144.954C245.532 143.472 246.786 140.574 248.568 138.09C249.479 136.857 250.133 135.454 250.492 133.964C250.851 132.473 250.907 130.926 250.656 129.414C250.53 128.556 250.926 128.166 251.7 127.992C252.636 127.776 253.566 128.028 253.884 128.67C254.73 130.226 255.301 131.917 255.57 133.668C255.744 135.12 255.228 136.53 255.054 137.964C254.922 139.014 254.682 140.052 254.484 141.114C254.742 141.3 255.036 141.204 255.312 141.21H264.996C266.358 141.21 267.024 141.594 267.216 142.494C267.322 143.049 267.243 143.623 266.992 144.129C266.74 144.635 266.33 145.045 265.824 145.296C265.578 145.422 265.146 145.296 265.116 145.692C265.086 146.088 265.536 146.034 265.758 146.19C266.958 146.988 266.718 148.638 265.374 149.604C265.044 149.832 264.414 149.724 264.402 150.204C264.402 150.582 265.002 150.576 265.254 150.846C266.202 151.776 265.74 153.516 264.33 154.224C264.137 154.284 263.948 154.359 263.766 154.446C263.604 154.554 263.448 154.674 263.766 154.896C265.164 155.886 265.14 157.296 263.736 158.298L263.316 158.598C262.807 158.908 262.21 159.041 261.618 158.976C256.554 159.004 251.492 159.022 246.432 159.03C246.194 159.056 245.953 159.035 245.723 158.967C245.493 158.899 245.279 158.786 245.094 158.634Z" fill="#EBEBEB"/>
<path fill-rule="evenodd" clip-rule="evenodd" d="M230.676 151.944C230.676 149.544 230.676 147.09 230.64 144.66C230.64 144.168 230.688 143.922 231.294 143.928C234.258 143.96 237.218 143.96 240.174 143.928C240.774 143.928 240.846 144.12 240.846 144.636C240.846 149.52 240.862 154.404 240.894 159.288C240.894 159.888 240.732 160.086 240.108 160.08C237.24 160.08 234.366 160.08 231.492 160.116C230.778 160.116 230.682 159.876 230.688 159.252C230.712 156.798 230.682 154.374 230.676 151.944Z" fill="#EBEBEB"/>
<path d="M118.626 268.164H40.026C39.609 268.164 39.2092 267.998 38.9144 267.704C38.6196 267.409 38.454 267.009 38.454 266.592V257.226C38.454 257.196 38.454 257.166 38.454 257.136C38.454 257.106 38.454 257.028 38.454 256.968L48 222.078L35.694 145.8L31.584 144.372C31.2245 144.224 30.9326 143.949 30.7645 143.598C30.5963 143.248 30.564 142.848 30.6736 142.475C30.7832 142.102 31.027 141.783 31.358 141.579C31.689 141.376 32.0837 141.302 32.466 141.372L37.536 143.082C37.8232 143.166 38.0803 143.33 38.2771 143.556C38.4738 143.781 38.6018 144.058 38.646 144.354L51.15 221.874C51.1831 222.048 51.1831 222.228 51.15 222.402L41.922 255.834L115.122 261.036C115.528 261.064 115.908 261.247 116.184 261.546L119.784 265.542C119.986 265.768 120.119 266.047 120.167 266.346C120.214 266.646 120.174 266.953 120.051 267.23C119.928 267.507 119.727 267.743 119.473 267.908C119.22 268.074 118.923 268.163 118.62 268.164H118.626ZM41.616 265.026H115.086L114.276 264.126L41.616 258.96V265.026Z" fill="#C7C7C7"/>
<path d="M147.396 170.586H41.4719C41.2577 170.599 41.0431 170.569 40.8412 170.496C40.6393 170.423 40.4545 170.309 40.2982 170.162C40.1418 170.015 40.0172 169.838 39.932 169.641C39.8468 169.444 39.8029 169.232 39.8029 169.017C39.8029 168.802 39.8468 168.59 39.932 168.393C40.0172 168.196 40.1418 168.019 40.2982 167.872C40.4545 167.725 40.6393 167.611 40.8412 167.538C41.0431 167.465 41.2577 167.435 41.4719 167.448H147.396C147.61 167.435 147.825 167.465 148.027 167.538C148.229 167.611 148.413 167.725 148.57 167.872C148.726 168.019 148.851 168.196 148.936 168.393C149.021 168.59 149.065 168.802 149.065 169.017C149.065 169.232 149.021 169.444 148.936 169.641C148.851 169.838 148.726 170.015 148.57 170.162C148.413 170.309 148.229 170.423 148.027 170.496C147.825 170.569 147.61 170.599 147.396 170.586Z" fill="#C7C7C7"/>
<path d="M49.5959 222.636C49.4664 222.622 49.3465 222.561 49.2594 222.464C49.1723 222.367 49.1241 222.241 49.1241 222.111C49.1241 221.981 49.1723 221.855 49.2594 221.758C49.3465 221.661 49.4664 221.6 49.5959 221.586L129.168 217.332L144.834 168.858C144.855 168.792 144.889 168.732 144.933 168.679C144.978 168.627 145.033 168.584 145.094 168.553C145.155 168.521 145.222 168.503 145.291 168.497C145.36 168.492 145.429 168.5 145.494 168.522C145.559 168.545 145.619 168.582 145.671 168.629C145.722 168.676 145.763 168.733 145.791 168.796C145.82 168.859 145.835 168.928 145.837 168.997C145.838 169.066 145.826 169.136 145.8 169.2L130.02 218.016C129.988 218.117 129.927 218.207 129.843 218.272C129.759 218.337 129.658 218.376 129.552 218.382L49.6259 222.63L49.5959 222.636Z" fill="#C7C7C7"/>
<path d="M130.896 213.984H48.1439C48.0055 213.984 47.8727 213.929 47.7748 213.831C47.6769 213.733 47.6219 213.6 47.6219 213.462C47.6219 213.324 47.6769 213.191 47.7748 213.093C47.8727 212.995 48.0055 212.94 48.1439 212.94H130.896C131.034 212.94 131.167 212.995 131.265 213.093C131.363 213.191 131.418 213.324 131.418 213.462C131.418 213.6 131.363 213.733 131.265 213.831C131.167 213.929 131.034 213.984 130.896 213.984Z" fill="#C7C7C7"/>
<path d="M133.002 207.6H47.1659C47.0275 207.6 46.8947 207.545 46.7968 207.447C46.6989 207.349 46.6439 207.216 46.6439 207.078C46.6439 206.94 46.6989 206.807 46.7968 206.709C46.8947 206.611 47.0275 206.556 47.1659 206.556H133.002C133.14 206.556 133.273 206.611 133.371 206.709C133.469 206.807 133.524 206.94 133.524 207.078C133.524 207.216 133.469 207.349 133.371 207.447C133.273 207.545 133.14 207.6 133.002 207.6Z" fill="#C7C7C7"/>
<path d="M134.946 201.258H46.1999C46.0704 201.244 45.9505 201.183 45.8634 201.086C45.7763 200.989 45.7281 200.863 45.7281 200.733C45.7281 200.603 45.7763 200.477 45.8634 200.38C45.9505 200.283 46.0704 200.222 46.1999 200.208H134.946C135.02 200.2 135.094 200.208 135.165 200.231C135.235 200.253 135.3 200.291 135.355 200.34C135.41 200.39 135.454 200.45 135.484 200.518C135.515 200.586 135.53 200.659 135.53 200.733C135.53 200.807 135.515 200.88 135.484 200.948C135.454 201.016 135.41 201.076 135.355 201.126C135.3 201.175 135.235 201.213 135.165 201.235C135.094 201.258 135.02 201.266 134.946 201.258Z" fill="#C7C7C7"/>
<path d="M137.058 194.892H45.2219C45.1482 194.9 45.0737 194.892 45.0033 194.869C44.9328 194.847 44.8679 194.809 44.8128 194.76C44.7577 194.71 44.7136 194.65 44.6834 194.582C44.6533 194.514 44.6377 194.441 44.6377 194.367C44.6377 194.293 44.6533 194.22 44.6834 194.152C44.7136 194.084 44.7577 194.024 44.8128 193.974C44.8679 193.925 44.9328 193.887 45.0033 193.865C45.0737 193.842 45.1482 193.834 45.2219 193.842H137.058C137.187 193.856 137.307 193.917 137.394 194.014C137.482 194.111 137.53 194.237 137.53 194.367C137.53 194.497 137.482 194.623 137.394 194.72C137.307 194.817 137.187 194.878 137.058 194.892Z" fill="#C7C7C7"/>
<path d="M139.068 188.526H44.268C44.1295 188.526 43.9968 188.471 43.8989 188.373C43.801 188.275 43.746 188.142 43.746 188.004C43.746 187.866 43.801 187.733 43.8989 187.635C43.9968 187.537 44.1295 187.482 44.268 187.482H139.068C139.206 187.482 139.339 187.537 139.437 187.635C139.535 187.733 139.59 187.866 139.59 188.004C139.59 188.142 139.535 188.275 139.437 188.373C139.339 188.471 139.206 188.526 139.068 188.526Z" fill="#C7C7C7"/>
<path d="M141.228 182.16H43.272C43.1336 182.16 43.0008 182.105 42.9029 182.007C42.805 181.909 42.75 181.776 42.75 181.638C42.75 181.5 42.805 181.367 42.9029 181.269C43.0008 181.171 43.1336 181.116 43.272 181.116H141.228C141.366 181.116 141.499 181.171 141.597 181.269C141.695 181.367 141.75 181.5 141.75 181.638C141.75 181.776 141.695 181.909 141.597 182.007C141.499 182.105 141.366 182.16 141.228 182.16Z" fill="#C7C7C7"/>
<path d="M143.286 175.8H42.3C42.1615 175.8 42.0287 175.745 41.9308 175.647C41.833 175.549 41.778 175.416 41.778 175.278C41.778 175.14 41.833 175.007 41.9308 174.909C42.0287 174.811 42.1615 174.756 42.3 174.756H143.286C143.424 174.756 143.557 174.811 143.655 174.909C143.753 175.007 143.808 175.14 143.808 175.278C143.808 175.416 143.753 175.549 143.655 175.647C143.557 175.745 143.424 175.8 143.286 175.8Z" fill="#C7C7C7"/>
<path d="M56.7419 222C56.6095 222 56.4819 221.95 56.385 221.86C56.2881 221.77 56.2291 221.646 56.2199 221.514L52.1999 169.056C52.1942 168.988 52.2021 168.919 52.2232 168.854C52.2444 168.789 52.2783 168.728 52.3229 168.676C52.3676 168.624 52.4222 168.582 52.4835 168.551C52.5448 168.521 52.6116 168.503 52.6799 168.498C52.8178 168.49 52.9535 168.535 53.0587 168.624C53.1638 168.714 53.2302 168.841 53.2439 168.978L57.2639 221.4C57.2739 221.538 57.2289 221.673 57.139 221.778C57.0491 221.883 56.9214 221.947 56.7839 221.958L56.7419 222Z" fill="#C7C7C7"/>
<path d="M121.62 218.55C121.576 218.556 121.532 218.556 121.488 218.55C121.354 218.513 121.24 218.426 121.17 218.305C121.101 218.185 121.081 218.042 121.116 217.908L134.442 168.9C134.479 168.766 134.566 168.652 134.687 168.582C134.807 168.513 134.95 168.493 135.084 168.528C135.15 168.546 135.212 168.577 135.266 168.619C135.321 168.661 135.366 168.713 135.4 168.773C135.434 168.833 135.456 168.898 135.465 168.967C135.473 169.035 135.468 169.104 135.45 169.17L122.13 218.178C122.095 218.286 122.027 218.381 121.936 218.447C121.844 218.514 121.733 218.55 121.62 218.55Z" fill="#C7C7C7"/>
<path d="M65.1 221.58C64.9631 221.578 64.8321 221.524 64.7347 221.428C64.6373 221.331 64.5811 221.201 64.578 221.064L63.282 169.032C63.2803 168.893 63.3326 168.76 63.4278 168.659C63.5229 168.558 63.6536 168.498 63.792 168.492C63.929 168.492 64.0606 168.545 64.1592 168.64C64.2577 168.735 64.3153 168.865 64.32 169.002L65.61 221.04C65.6133 221.179 65.5615 221.314 65.466 221.415C65.3705 221.516 65.239 221.575 65.1 221.58Z" fill="#C7C7C7"/>
<path d="M73.6799 221.112C73.6114 221.11 73.5438 221.095 73.4811 221.068C73.4183 221.04 73.3617 221 73.3143 220.951C73.2669 220.901 73.2298 220.843 73.205 220.779C73.1803 220.715 73.1683 220.647 73.1699 220.578L74.1299 169.008C74.133 168.871 74.1892 168.741 74.2866 168.644C74.384 168.548 74.515 168.494 74.6519 168.492C74.7205 168.494 74.7881 168.509 74.8508 168.536C74.9135 168.564 74.9702 168.604 75.0176 168.653C75.0649 168.703 75.1021 168.761 75.1268 168.825C75.1516 168.889 75.1635 168.957 75.1619 169.026L74.2019 220.626C74.1928 220.758 74.1338 220.882 74.0369 220.972C73.94 221.062 73.8124 221.112 73.6799 221.112Z" fill="#C7C7C7"/>
<path d="M112.488 218.958H112.386C112.253 218.932 112.135 218.854 112.059 218.742C111.982 218.63 111.953 218.492 111.978 218.358L122.1 168.942C122.13 168.811 122.209 168.696 122.32 168.62C122.431 168.545 122.567 168.514 122.7 168.534C122.832 168.562 122.949 168.64 123.025 168.752C123.101 168.863 123.131 169.001 123.108 169.134L112.986 218.55C112.96 218.663 112.896 218.765 112.806 218.839C112.716 218.912 112.604 218.954 112.488 218.958Z" fill="#C7C7C7"/>
<path d="M102.084 219.6H102C101.864 219.576 101.742 219.5 101.661 219.388C101.581 219.276 101.547 219.137 101.568 219L109.764 168.96C109.787 168.824 109.864 168.703 109.976 168.623C110.089 168.543 110.228 168.511 110.364 168.534C110.432 168.545 110.496 168.569 110.554 168.605C110.613 168.641 110.663 168.689 110.703 168.745C110.742 168.801 110.77 168.864 110.785 168.931C110.8 168.997 110.802 169.067 110.79 169.134L102.6 219.144C102.583 219.269 102.521 219.384 102.427 219.468C102.332 219.551 102.21 219.598 102.084 219.6Z" fill="#C7C7C7"/>
<path d="M82.464 220.614H82.422C82.3536 220.609 82.2868 220.591 82.2255 220.561C82.1643 220.53 82.1097 220.488 82.065 220.436C82.0203 220.384 81.9864 220.323 81.9653 220.258C81.9442 220.193 81.9363 220.124 81.942 220.056L85.764 168.978C85.7743 168.84 85.8393 168.711 85.9445 168.62C86.0497 168.53 86.1865 168.485 86.325 168.495C86.4634 168.505 86.5921 168.57 86.6827 168.675C86.7733 168.781 86.8183 168.918 86.808 169.056L82.986 220.134C82.9741 220.265 82.914 220.386 82.8176 220.475C82.7211 220.563 82.5951 220.613 82.464 220.614Z" fill="#C7C7C7"/>
<path d="M92.754 219.948H92.694C92.6239 219.94 92.556 219.918 92.4946 219.883C92.4331 219.848 92.3793 219.802 92.3362 219.746C92.2931 219.69 92.2617 219.626 92.2438 219.557C92.2259 219.489 92.2219 219.418 92.232 219.348L97.836 168.948C97.8435 168.88 97.8643 168.814 97.8973 168.754C97.9303 168.694 97.9748 168.641 98.0283 168.598C98.0818 168.555 98.1432 168.523 98.209 168.504C98.2749 168.485 98.3438 168.479 98.412 168.486C98.4801 168.494 98.5462 168.514 98.6063 168.547C98.6664 168.58 98.7194 168.625 98.7623 168.678C98.8052 168.732 98.8371 168.793 98.8563 168.859C98.8755 168.925 98.8815 168.994 98.874 169.062L93.27 219.462C93.2609 219.593 93.2028 219.716 93.1071 219.806C93.0115 219.896 92.8854 219.947 92.754 219.948Z" fill="#C7C7C7"/>
<path d="M50.226 276.336C53.4635 276.336 56.088 273.711 56.088 270.474C56.088 267.237 53.4635 264.612 50.226 264.612C46.9885 264.612 44.364 267.237 44.364 270.474C44.364 273.711 46.9885 276.336 50.226 276.336Z" fill="#263238"/>
<path d="M52.89 270.474C52.89 271.001 52.7338 271.516 52.441 271.954C52.1483 272.392 51.7323 272.734 51.2455 272.935C50.7587 273.137 50.2231 273.19 49.7063 273.087C49.1895 272.984 48.7148 272.73 48.3423 272.358C47.9697 271.985 47.716 271.51 47.6132 270.994C47.5104 270.477 47.5632 269.941 47.7648 269.455C47.9664 268.968 48.3079 268.552 48.746 268.259C49.1841 267.966 49.6991 267.81 50.226 267.81C50.9325 267.81 51.6101 268.091 52.1097 268.59C52.6093 269.09 52.89 269.767 52.89 270.474Z" fill="#EBEBEB"/>
<path d="M102.684 276.336C105.921 276.336 108.546 273.711 108.546 270.474C108.546 267.237 105.921 264.612 102.684 264.612C99.4464 264.612 96.8219 267.237 96.8219 270.474C96.8219 273.711 99.4464 276.336 102.684 276.336Z" fill="#263238"/>
<path d="M105.348 270.474C105.348 271.001 105.192 271.516 104.899 271.954C104.606 272.392 104.19 272.734 103.703 272.935C103.217 273.137 102.681 273.19 102.164 273.087C101.647 272.984 101.173 272.73 100.8 272.358C100.428 271.985 100.174 271.51 100.071 270.994C99.9683 270.477 100.021 269.941 100.223 269.455C100.424 268.968 100.766 268.552 101.204 268.259C101.642 267.966 102.157 267.81 102.684 267.81C103.39 267.81 104.068 268.091 104.568 268.59C105.067 269.09 105.348 269.767 105.348 270.474Z" fill="#EBEBEB"/>
<path d="M35.934 146.118C35.7168 146.119 35.5014 146.08 35.298 146.004L27.042 142.872C26.8209 142.788 26.6186 142.661 26.4465 142.499C26.2745 142.337 26.136 142.143 26.0391 141.927C25.9421 141.712 25.8886 141.479 25.8815 141.243C25.8745 141.006 25.914 140.771 25.998 140.55C26.0819 140.329 26.2085 140.127 26.3706 139.955C26.5327 139.782 26.7271 139.644 26.9427 139.547C27.1584 139.45 27.391 139.397 27.6273 139.39C27.8636 139.383 28.0989 139.422 28.32 139.506L36.6 142.638C36.992 142.789 37.3189 143.072 37.5242 143.438C37.7294 143.805 37.8001 144.232 37.7239 144.645C37.6477 145.058 37.4294 145.431 37.1069 145.7C36.7844 145.969 36.378 146.117 35.958 146.118H35.934Z" fill="#92E3A9"/>
<path d="M29.1479 276.336C106.548 275.97 193.428 275.964 270.852 276.336C193.452 276.708 106.572 276.702 29.1479 276.336Z" fill="#263238"/>
<path d="M200.712 46.626H99.276C97.916 46.6386 96.5718 46.9189 95.3201 47.4509C94.0685 47.983 92.9339 48.7564 91.9811 49.727C91.0284 50.6975 90.2762 51.8463 89.7674 53.1076C89.2586 54.3689 89.0033 55.718 89.016 57.078V265.878C88.992 268.624 90.0591 271.268 91.9829 273.227C93.9067 275.187 96.5298 276.303 99.276 276.33H200.712C203.459 276.303 206.083 275.188 208.009 273.228C209.935 271.269 211.005 268.625 210.984 265.878V57.078C211.006 54.3303 209.937 51.686 208.011 49.7262C206.085 47.7664 203.46 46.6514 200.712 46.626ZM204.564 259.428C204.564 264.924 200.448 269.37 195.372 269.37H104.628C99.54 269.37 95.4239 264.924 95.4239 259.428V64.992C95.4239 53.796 99.54 53.25 104.628 53.25H122.808C123.864 53.25 124.728 54.45 124.728 55.938V56.58C124.728 60.066 126.636 60.078 128.976 60.078H171C173.364 60.078 175.26 60.078 175.26 56.58V55.938C175.26 54.45 176.112 53.25 177.186 53.25H195.36C200.436 53.25 204.552 54.738 204.552 64.992L204.564 259.428Z" fill="#263238"/>
<path d="M204.6 65.166V259.602C204.6 265.098 200.484 269.544 195.408 269.544H104.634C99.5459 269.544 95.4299 265.098 95.4299 259.602V65.166C95.4299 54 99.5459 53.4 104.634 53.4H122.814C123.87 53.4 124.734 54.6 124.734 56.088V56.73C124.734 60.216 126.642 60.228 128.982 60.228H171C173.364 60.228 175.26 60.228 175.26 56.73V56.112C175.26 54.624 176.112 53.424 177.186 53.424H195.36C200.454 53.4 204.6 54.912 204.6 65.166Z" fill="white"/>
<path d="M155.73 55.722H144.264C144.076 55.722 143.896 55.6474 143.763 55.5146C143.631 55.3819 143.556 55.2018 143.556 55.014C143.556 54.8262 143.631 54.6461 143.763 54.5134C143.896 54.3806 144.076 54.306 144.264 54.306H155.73C155.918 54.306 156.098 54.3806 156.231 54.5134C156.363 54.6461 156.438 54.8262 156.438 55.014C156.438 55.2018 156.363 55.3819 156.231 55.5146C156.098 55.6474 155.918 55.722 155.73 55.722Z" fill="white"/>
<path d="M119.67 57.6L119.496 57.774L119.394 57.876C118.944 57.429 118.336 57.1781 117.702 57.1781C117.068 57.1781 116.46 57.429 116.01 57.876C115.975 57.845 115.943 57.8108 115.914 57.774C115.854 57.72 115.8 57.66 115.74 57.6C115.818 57.54 115.89 57.468 115.962 57.408C116.119 57.2767 116.293 57.1658 116.478 57.078C116.692 56.97 116.92 56.8932 117.156 56.85L117.498 56.808H117.798H118.026C118.231 56.83 118.433 56.8784 118.626 56.952C118.773 57.0057 118.916 57.072 119.052 57.15C119.193 57.2336 119.327 57.3279 119.454 57.432L119.64 57.6H119.67Z" fill="#A6A6A6"/>
<path d="M116.562 58.446C116.472 58.35 116.382 58.26 116.286 58.17C116.471 57.9837 116.691 57.8358 116.934 57.7349C117.176 57.634 117.436 57.5821 117.699 57.5821C117.962 57.5821 118.222 57.634 118.464 57.7349C118.707 57.8358 118.927 57.9837 119.112 58.17L118.836 58.446C118.534 58.1445 118.125 57.975 117.699 57.975C117.273 57.975 116.864 58.1445 116.562 58.446Z" fill="#A6A6A6"/>
<path d="M118.56 58.722L118.284 58.998C118.129 58.8448 117.92 58.7589 117.702 58.7589C117.484 58.7589 117.275 58.8448 117.12 58.998C117.024 58.908 116.934 58.812 116.844 58.722C116.956 58.6077 117.089 58.5169 117.237 58.4549C117.384 58.3929 117.542 58.3609 117.702 58.3609C117.862 58.3609 118.02 58.3929 118.167 58.4549C118.315 58.5169 118.448 58.6077 118.56 58.722Z" fill="#A6A6A6"/>
<path d="M117.948 59.25C117.948 59.3152 117.922 59.3778 117.876 59.4239C117.83 59.4701 117.767 59.496 117.702 59.496C117.669 59.4968 117.637 59.491 117.606 59.479C117.575 59.467 117.548 59.449 117.524 59.4261C117.501 59.4032 117.482 59.3758 117.469 59.3455C117.456 59.3153 117.45 59.2828 117.45 59.25C117.45 59.1832 117.477 59.1191 117.524 59.0718C117.571 59.0245 117.635 58.998 117.702 58.998C117.735 58.998 117.767 59.0045 117.797 59.0173C117.828 59.03 117.855 59.0487 117.878 59.0721C117.901 59.0956 117.919 59.1235 117.931 59.154C117.943 59.1845 117.949 59.2172 117.948 59.25Z" fill="#A6A6A6"/>
<path d="M102.54 58.146C102.54 58.0024 102.583 57.862 102.662 57.7427C102.742 57.6233 102.855 57.5302 102.988 57.4753C103.121 57.4203 103.267 57.4059 103.408 57.4339C103.548 57.462 103.678 57.5311 103.779 57.6326C103.881 57.7342 103.95 57.8635 103.978 58.0044C104.006 58.1452 103.992 58.2912 103.937 58.4238C103.882 58.5565 103.789 58.6699 103.669 58.7496C103.55 58.8294 103.41 58.872 103.266 58.872C103.073 58.872 102.889 58.7955 102.753 58.6594C102.616 58.5232 102.54 58.3385 102.54 58.146Z" fill="#A6A6A6"/>
<path d="M104.82 58.146C104.82 58.0024 104.863 57.862 104.942 57.7427C105.022 57.6233 105.135 57.5302 105.268 57.4753C105.401 57.4203 105.547 57.4059 105.688 57.4339C105.828 57.462 105.958 57.5311 106.059 57.6326C106.161 57.7342 106.23 57.8635 106.258 58.0044C106.286 58.1452 106.272 58.2912 106.217 58.4238C106.162 58.5565 106.069 58.6699 105.949 58.7496C105.83 58.8294 105.69 58.872 105.546 58.872C105.451 58.872 105.356 58.8532 105.268 58.8167C105.18 58.7803 105.1 58.7268 105.033 58.6594C104.965 58.5919 104.912 58.5119 104.875 58.4238C104.839 58.3357 104.82 58.2413 104.82 58.146Z" fill="#A6A6A6"/>
<path d="M107.1 58.146C107.1 58.0022 107.143 57.8616 107.223 57.742C107.303 57.6225 107.417 57.5295 107.55 57.4747C107.683 57.4199 107.829 57.4059 107.97 57.4344C108.111 57.4629 108.24 57.5327 108.341 57.6348C108.443 57.7369 108.511 57.8669 108.539 58.0081C108.566 58.1493 108.551 58.2955 108.495 58.428C108.439 58.5606 108.345 58.6735 108.225 58.7526C108.105 58.8316 107.964 58.8732 107.82 58.872C107.725 58.872 107.631 58.8532 107.543 58.8166C107.455 58.7801 107.376 58.7265 107.309 58.659C107.242 58.5915 107.189 58.5114 107.153 58.4234C107.117 58.3353 107.099 58.2411 107.1 58.146Z" fill="#A6A6A6"/>
<path d="M109.38 58.146C109.38 58.0022 109.423 57.8616 109.503 57.742C109.583 57.6225 109.696 57.5295 109.829 57.4747C109.962 57.4199 110.109 57.4059 110.25 57.4344C110.391 57.4629 110.52 57.5327 110.621 57.6348C110.723 57.7369 110.791 57.8669 110.819 58.0081C110.846 58.1493 110.831 58.2955 110.775 58.428C110.719 58.5606 110.625 58.6735 110.505 58.7526C110.385 58.8316 110.244 58.8732 110.1 58.872C110.005 58.872 109.911 58.8532 109.823 58.8166C109.735 58.7801 109.656 58.7265 109.589 58.659C109.522 58.5915 109.469 58.5114 109.433 58.4234C109.397 58.3353 109.379 58.2411 109.38 58.146Z" fill="#A6A6A6"/>
<path d="M111.654 58.146C111.654 58.0024 111.697 57.862 111.776 57.7427C111.856 57.6233 111.969 57.5302 112.102 57.4753C112.235 57.4203 112.381 57.4059 112.522 57.4339C112.662 57.462 112.792 57.5311 112.893 57.6326C112.995 57.7342 113.064 57.8635 113.092 58.0044C113.12 58.1452 113.106 58.2912 113.051 58.4238C112.996 58.5565 112.903 58.6699 112.783 58.7496C112.664 58.8294 112.524 58.872 112.38 58.872C112.187 58.872 112.003 58.7955 111.867 58.6594C111.73 58.5232 111.654 58.3385 111.654 58.146Z" fill="#A6A6A6"/>
<path d="M196.38 59.73H190.488V57H196.38V59.73ZM190.788 59.43H196.08V57.3H190.8L190.788 59.43Z" fill="#A6A6A6"/>
<path d="M194.778 57.462H190.98V59.262H194.778V57.462Z" fill="#A6A6A6"/>
<path d="M196.902 57.636H196.38V59.094H196.902V57.636Z" fill="#A6A6A6"/>
<path d="M156.27 45.072H143.736V74.562H156.27V45.072Z" fill="#92E3A9"/>
<path d="M156.264 74.556C156.264 74.556 155.064 80.556 150 80.556C144.936 80.556 143.736 74.556 143.736 74.556H156.264Z" fill="#92E3A9"/>
<path opacity="0.1" d="M156.264 74.556C156.264 74.556 155.064 80.556 150 80.556C144.936 80.556 143.736 74.556 143.736 74.556H156.264Z" fill="black"/>
<path d="M143.73 74.562H131.196L132.474 45.072H143.73V74.562Z" fill="white"/>
<path d="M143.73 74.562L131.196 74.64H131.112C131.112 74.64 132.312 45.108 132.312 45.066V44.922H132.45H143.706H143.832C143.88 45.036 143.754 59.7 143.784 59.82L143.706 74.532L143.73 74.562ZM143.73 74.562L143.652 59.784L143.61 45.072L143.73 45.192L132.474 45.222L132.624 45.078C132.582 45.078 131.388 74.91 131.196 74.478L143.73 74.556V74.562Z" fill="#263238"/>
<path d="M143.736 74.556C143.736 74.556 142.536 80.556 137.46 80.556C132.384 80.556 131.196 74.556 131.196 74.556H143.736Z" fill="#EBEBEB"/>
<path d="M131.196 74.562H118.662L121.218 45.072H132.474L131.196 74.562Z" fill="#92E3A9"/>
<path d="M131.196 74.556C131.196 74.556 129.996 80.556 124.926 80.556C119.856 80.556 118.662 74.556 118.662 74.556H131.196Z" fill="#92E3A9"/>
<path opacity="0.1" d="M131.196 74.556C131.196 74.556 129.996 80.556 124.926 80.556C119.856 80.556 118.662 74.556 118.662 74.556H131.196Z" fill="black"/>
<path d="M118.656 74.562H106.122L109.962 45.072H121.218L118.656 74.562Z" fill="white"/>
<path d="M118.656 74.562L106.122 74.64H106.032C106.032 74.64 109.8 45.102 109.8 45.054V44.922H109.932H121.188H121.32V45.054L120 59.856L118.644 74.562H118.656ZM118.656 74.562L119.856 59.778L121.092 45.06L121.212 45.192L109.956 45.222L110.1 45.09C110.058 45.09 106.29 74.934 106.116 74.49L118.65 74.568L118.656 74.562Z" fill="#263238"/>
<path d="M118.656 74.556C118.656 74.556 117.456 80.556 112.386 80.556C107.316 80.556 106.122 74.556 106.122 74.556H118.656Z" fill="#EBEBEB"/>
<path d="M106.122 74.562H93.588L98.706 45.072H109.956L106.122 74.562Z" fill="#92E3A9"/>
<path d="M106.122 74.556C106.122 74.556 104.922 80.556 99.858 80.556C94.794 80.556 93.582 74.556 93.582 74.556H106.122Z" fill="#92E3A9"/>
<path opacity="0.1" d="M106.122 74.556C106.122 74.556 104.922 80.556 99.858 80.556C94.794 80.556 93.582 74.556 93.582 74.556H106.122Z" fill="black"/>
<path d="M93.6 74.562H81.048L86.646 48.762C87.108 46.632 89.376 45.078 92.046 45.078H98.7L93.6 74.562Z" fill="white"/>
<path d="M93.6 74.562L81.066 74.64H80.97V74.544C81.756 70.878 85.53 53.292 86.226 50.034C86.3464 49.1901 86.5868 48.3678 86.94 47.592C88.266 45.192 91.206 44.766 93.69 44.934H98.7H98.85L98.82 45.072L96.216 59.844L93.6 74.562ZM93.6 74.562L96.084 59.772L98.598 45.048L98.718 45.192H93.708C91.308 45.048 88.506 45.432 87.21 47.724C86.8682 48.4729 86.6358 49.267 86.52 50.082L85.446 54.978L81.144 74.568L81.066 74.472L93.6 74.55V74.562Z" fill="#263238"/>
<path d="M93.6 74.556C93.6 74.556 92.4 80.556 87.336 80.556C82.272 80.556 81.072 74.556 81.072 74.556H93.6Z" fill="#EBEBEB"/>
<path d="M156.27 74.562H168.804L167.526 45.072H156.27V74.562Z" fill="white"/>
<path d="M156.27 74.562L168.804 74.484L168.726 74.562L167.4 45.078L167.55 45.222L156.294 45.192L156.414 45.072L156.372 59.784L156.294 74.562H156.27ZM156.27 74.562L156.192 59.85L156.15 45.072V44.952H156.276H167.532H167.67V45.096C167.67 45.204 168.87 74.574 168.87 74.67H168.786L156.252 74.592L156.27 74.562Z" fill="#263238"/>
<path d="M168.804 74.556C168.804 74.556 167.604 80.556 162.54 80.556C157.476 80.556 156.264 74.556 156.264 74.556H168.804Z" fill="#EBEBEB"/>
<path d="M168.804 74.562H181.338L178.782 45.072H167.526L168.804 74.562Z" fill="#92E3A9"/>
<path d="M181.338 74.556C181.338 74.556 180.138 80.556 175.074 80.556C170.01 80.556 168.804 74.556 168.804 74.556H181.338Z" fill="#92E3A9"/>
<path opacity="0.1" d="M181.338 74.556C181.338 74.556 180.138 80.556 175.074 80.556C170.01 80.556 168.804 74.556 168.804 74.556H181.338Z" fill="black"/>
<path d="M181.344 74.562H193.878L190.038 45.072H178.782L181.344 74.562Z" fill="white"/>
<path d="M181.344 74.562L193.878 74.484C193.704 75.024 189.954 44.97 189.894 45.084L190.038 45.216L178.8 45.192L178.92 45.06C179.55 52.41 180.768 67.206 181.362 74.562H181.344ZM181.344 74.562L180 59.856L178.674 45.084V44.952H178.8H190.056H190.2C190.242 45.168 193.962 74.442 193.998 74.67H193.908L181.374 74.592L181.344 74.562Z" fill="#263238"/>
<path d="M193.878 74.556C193.878 74.556 192.678 80.556 187.614 80.556C182.55 80.556 181.344 74.556 181.344 74.556H193.878Z" fill="#EBEBEB"/>
<path d="M193.878 74.562H206.412L201.294 45.072H190.044L193.878 74.562Z" fill="#92E3A9"/>
<path d="M206.4 74.556C206.4 74.556 205.2 80.556 200.124 80.556C195.048 80.556 193.86 74.556 193.86 74.556H206.4Z" fill="#92E3A9"/>
<path opacity="0.1" d="M206.4 74.556C206.4 74.556 205.2 80.556 200.124 80.556C195.048 80.556 193.86 74.556 193.86 74.556H206.4Z" fill="black"/>
<path d="M206.4 74.562H218.934L213.336 48.762C212.874 46.632 210.606 45.078 207.936 45.078H201.3L206.4 74.562Z" fill="white"/>
<path d="M206.4 74.562L218.934 74.484L218.856 74.58L214.554 54.99L213.48 50.094C213.364 49.279 213.132 48.4849 212.79 47.736C211.494 45.444 208.704 45.06 206.292 45.204H201.282L201.402 45.06C202.686 52.398 205.2 67.2 206.4 74.562ZM206.4 74.562L203.766 59.862L201.18 45.09L201.15 44.952H201.3H206.31C209.232 44.718 212.79 45.552 213.51 48.822C214.41 53.022 218.07 70.074 219.03 74.562V74.658H218.934L206.4 74.562Z" fill="#263238"/>
<path d="M218.946 74.556C218.946 74.556 217.746 80.556 212.682 80.556C207.618 80.556 206.418 74.556 206.418 74.556H218.946Z" fill="#EBEBEB"/>
<path d="M179.166 132.318H120.84V190.644H179.166V132.318Z" fill="#92E3A9"/>
<path d="M169.164 160.236H130.836V154.8H169.164V160.236Z" fill="white"/>
<path d="M167.028 159.084L165.762 179.25H134.244L132.972 159.084H167.028Z" fill="white"/>
<path d="M154.074 156.906C154.074 157.712 153.835 158.499 153.387 159.169C152.94 159.839 152.304 160.362 151.559 160.67C150.815 160.978 149.996 161.059 149.205 160.902C148.415 160.745 147.689 160.357 147.119 159.787C146.55 159.217 146.162 158.491 146.004 157.701C145.847 156.911 145.928 156.091 146.236 155.347C146.544 154.603 147.067 153.966 147.737 153.519C148.407 153.071 149.194 152.832 150 152.832C151.08 152.834 152.115 153.263 152.879 154.027C153.643 154.791 154.072 155.826 154.074 156.906Z" fill="white"/>
<path d="M144.636 163.446V175.05C144.638 175.187 144.612 175.322 144.561 175.449C144.51 175.575 144.434 175.69 144.338 175.788C144.242 175.885 144.128 175.962 144.002 176.014C143.876 176.067 143.741 176.094 143.604 176.094H143.436C143.323 176.093 143.212 176.07 143.108 176.026C143.004 175.983 142.91 175.919 142.831 175.838C142.752 175.758 142.689 175.663 142.647 175.559C142.605 175.454 142.583 175.343 142.584 175.23V163.446C142.586 163.221 142.676 163.005 142.835 162.845C142.995 162.686 143.211 162.596 143.436 162.594H143.772C143.885 162.592 143.997 162.613 144.102 162.655C144.207 162.697 144.302 162.76 144.382 162.839C144.463 162.919 144.526 163.013 144.57 163.117C144.614 163.221 144.636 163.333 144.636 163.446Z" fill="#92E3A9"/>
<path d="M151.02 163.446V175.05C151.022 175.187 150.996 175.322 150.945 175.449C150.894 175.575 150.818 175.69 150.722 175.788C150.626 175.885 150.512 175.962 150.386 176.014C150.26 176.067 150.125 176.094 149.988 176.094H149.82C149.707 176.093 149.596 176.07 149.492 176.026C149.388 175.983 149.294 175.919 149.215 175.838C149.136 175.758 149.073 175.663 149.031 175.559C148.989 175.454 148.967 175.343 148.968 175.23V163.446C148.971 163.222 149.062 163.007 149.221 162.849C149.381 162.691 149.596 162.602 149.82 162.6H150.156C150.268 162.598 150.38 162.619 150.484 162.661C150.589 162.703 150.684 162.765 150.764 162.843C150.844 162.922 150.908 163.016 150.952 163.119C150.996 163.222 151.019 163.334 151.02 163.446Z" fill="#92E3A9"/>
<path d="M157.404 163.446V175.05C157.406 175.187 157.38 175.322 157.329 175.449C157.278 175.575 157.202 175.69 157.106 175.788C157.01 175.885 156.896 175.962 156.77 176.014C156.644 176.067 156.508 176.094 156.372 176.094H156.204C156.091 176.093 155.98 176.07 155.876 176.026C155.772 175.983 155.678 175.919 155.599 175.838C155.52 175.758 155.457 175.663 155.415 175.559C155.373 175.454 155.351 175.343 155.352 175.23V163.446C155.354 163.221 155.444 163.005 155.603 162.845C155.763 162.686 155.978 162.596 156.204 162.594H156.54C156.653 162.592 156.765 162.613 156.87 162.655C156.974 162.697 157.07 162.76 157.15 162.839C157.231 162.919 157.294 163.013 157.338 163.117C157.382 163.221 157.404 163.333 157.404 163.446Z" fill="#92E3A9"/>
<path d="M161.178 156.576H159.378V145.8H140.622V156.576H138.822V144H161.178V156.576Z" fill="white"/>
<path d="M186.213 138.747C189.756 134.851 189.47 128.822 185.575 125.278C181.68 121.735 175.65 122.021 172.107 125.916C168.564 129.811 168.849 135.841 172.745 139.384C176.64 142.927 182.67 142.642 186.213 138.747Z" fill="#455A64"/>
<path d="M181.14 131.328C181.453 131.633 181.701 131.998 181.87 132.401C182.039 132.804 182.125 133.237 182.124 133.674C182.126 134.335 181.931 134.982 181.565 135.533C181.199 136.083 180.677 136.512 180.066 136.766C179.455 137.019 178.783 137.085 178.134 136.956C177.486 136.826 176.891 136.507 176.424 136.038C176.344 135.97 176.278 135.886 176.232 135.791C176.186 135.697 176.16 135.593 176.155 135.488C176.151 135.383 176.169 135.278 176.207 135.18C176.245 135.082 176.303 134.992 176.378 134.918C176.452 134.844 176.542 134.785 176.64 134.747C176.738 134.709 176.843 134.691 176.948 134.695C177.053 134.7 177.157 134.726 177.251 134.772C177.346 134.818 177.43 134.884 177.498 134.964C177.666 135.132 177.865 135.265 178.084 135.356C178.304 135.446 178.539 135.493 178.776 135.492C179.015 135.494 179.253 135.449 179.474 135.358C179.696 135.267 179.897 135.133 180.066 134.964C180.237 134.796 180.374 134.595 180.466 134.374C180.559 134.152 180.607 133.914 180.606 133.674C180.607 133.436 180.56 133.201 180.467 132.983C180.374 132.764 180.238 132.566 180.066 132.402C179.899 132.232 179.7 132.097 179.481 132.004C179.262 131.911 179.026 131.863 178.788 131.862C178.684 131.868 178.579 131.849 178.484 131.807C178.388 131.766 178.303 131.702 178.236 131.622C178.095 131.477 178.016 131.284 178.016 131.082C178.016 130.88 178.095 130.687 178.236 130.542L179.604 129.15H177.426C177.236 129.133 177.06 129.046 176.931 128.905C176.803 128.765 176.732 128.581 176.732 128.391C176.732 128.201 176.803 128.017 176.931 127.877C177.06 127.736 177.236 127.649 177.426 127.632H181.392C181.492 127.63 181.591 127.649 181.684 127.686C181.776 127.722 181.861 127.777 181.932 127.847C182.004 127.917 182.06 128 182.1 128.092C182.139 128.184 182.159 128.282 182.16 128.382C182.157 128.508 182.124 128.631 182.064 128.742C182.028 128.811 181.984 128.876 181.932 128.934L180.234 130.68C180.575 130.836 180.882 131.056 181.14 131.328Z" fill="white"/>
<path d="M221.88 97.674C226.608 101.076 241.722 114.762 242.676 117.042C243.822 119.754 237.96 129.396 235.536 129.186C229.272 128.64 218.304 108.912 214.788 99.882C213.066 95.466 213.972 91.98 221.88 97.674Z" fill="#D3766A"/>
<path d="M234.69 96.456C236.046 94.968 246.78 102.96 246.564 105.912C245.778 116.772 242.448 125.994 240.468 127.902C239.837 128.482 239.078 128.904 238.252 129.134C237.427 129.364 236.559 129.396 235.719 129.227C234.879 129.058 234.091 128.693 233.419 128.161C232.747 127.63 232.21 126.947 231.852 126.168C229.476 121.2 229.434 102.21 234.69 96.456Z" fill="#D3766A"/>
<path d="M230.694 120.03C229.494 114.03 231.048 105.546 231.042 105.534C231.042 105.414 231.198 105.372 231.204 105.438C231.246 106.638 230.43 115.53 230.856 119.982C230.856 120 230.7 120.072 230.694 120.03Z" fill="#263238"/>
<path d="M248.85 97.962C248.67 101.112 245.784 107.4 244.5 108.654C243.216 109.908 232.362 105.348 231.9 103.572C231.438 101.796 232.86 91.248 235.008 88.86C237.156 86.472 249.036 94.698 248.85 97.962Z" fill="#D3766A"/>
<path d="M231.81 101.736C230.999 99.3211 229.841 97.0371 228.372 94.956C226.53 92.556 223.524 89.16 224.772 88.116C227.364 85.986 234.858 94.422 234.858 94.422C234.858 94.422 237.57 98.67 235.188 101.022C234.745 101.44 234.195 101.727 233.599 101.853C233.003 101.979 232.384 101.938 231.81 101.736Z" fill="#D3766A"/>
<path d="M235.05 95.37L237.858 93.636L232.842 85.506L229.29 87.702L235.05 95.37Z" fill="#92E3A9"/>
<path d="M229.296 87.702L231.486 90.624L235.056 95.37L237.858 93.636L232.848 85.506L229.296 87.702Z" fill="#92E3A9"/>
<path opacity="0.1" d="M229.296 87.702L231.486 90.624L234.756 88.608L232.848 85.506L229.296 87.702Z" fill="black"/>
<path d="M229.541 90.3577L233.953 87.607L231.863 84.2563L227.452 87.007L229.541 90.3577Z" fill="#92E3A9"/>
<path d="M223.914 86.346L227.562 84.57L224.208 79.14L220.986 81.6L223.914 86.346Z" fill="#92E3A9"/>
<path d="M225.312 76.974L230.256 84.99L236.442 82.128L252.876 78.792L240.996 59.538L230.646 72.732L225.312 76.974Z" fill="#92E3A9"/>
<path d="M244.14 70.89C247.434 76.236 251.502 79.71 253.218 78.648C254.934 77.586 253.656 72.402 250.356 67.056C247.056 61.71 243 58.242 241.278 59.298C239.556 60.354 240.846 65.55 244.14 70.89Z" fill="#92E3A9"/>
<path opacity="0.2" d="M244.764 70.278C247.686 75.024 251.196 78.162 252.606 77.298C254.016 76.434 252.78 71.898 249.852 67.14C246.924 62.382 243.414 59.256 242.01 60.12C240.606 60.984 241.836 65.538 244.764 70.278Z" fill="black"/>
<path d="M245.178 70.026C245.568 70.656 245.964 71.256 246.378 71.826C246.801 71.8797 247.23 71.8125 247.616 71.6323C248.002 71.4521 248.33 71.1662 248.56 70.8077C248.79 70.4493 248.915 70.0329 248.918 69.6068C248.922 69.1807 248.804 68.7623 248.58 68.4L248.022 67.494C247.799 67.1323 247.479 66.8409 247.098 66.6532C246.717 66.4655 246.291 66.3892 245.868 66.4331C245.446 66.477 245.044 66.6392 244.71 66.9012C244.375 67.1632 244.122 67.5143 243.978 67.914C244.338 68.604 244.74 69.312 245.178 70.026Z" fill="#92E3A9"/>
<path d="M227.424 87.354L234.474 83.922L227.994 73.416L221.76 78.174L227.424 87.354Z" fill="#92E3A9"/>
<path opacity="0.2" d="M227.424 87.354L234.474 83.922L227.994 73.416L221.76 78.174L227.424 87.354Z" fill="black"/>
<path opacity="0.2" d="M240.912 61.416C240.811 62.2645 240.864 63.1243 241.068 63.954C241.256 64.7864 241.509 65.6029 241.824 66.396C241.974 66.798 242.154 67.182 242.322 67.596C242.49 68.01 242.694 68.364 242.892 68.742C243.09 69.12 243.288 69.498 243.492 69.864C243.696 70.23 243.918 70.602 244.14 70.962C245.034 72.4163 246.056 73.7878 247.194 75.06C247.769 75.6912 248.4 76.2695 249.078 76.788C249.746 77.324 250.522 77.7107 251.352 77.922C250.545 77.6744 249.796 77.2662 249.15 76.722C248.501 76.1862 247.899 75.5961 247.35 74.958C246.235 73.6798 245.232 72.3088 244.35 70.86C243.441 69.4288 242.65 67.9258 241.986 66.366C241.653 65.5888 241.382 64.7863 241.176 63.966C240.937 63.1385 240.848 62.2749 240.912 61.416Z" fill="black"/>
<path d="M247.746 56.616C247.452 57.126 247.182 57.648 246.918 58.176C246.654 58.704 246.402 59.232 246.156 59.766C245.91 60.3 245.67 60.84 245.448 61.38L245.112 62.202C245.01 62.478 244.896 62.748 244.8 63.03C244.95 62.772 245.088 62.514 245.232 62.256L245.634 61.47C245.898 60.942 246.15 60.414 246.396 59.88C246.642 59.346 246.882 58.806 247.104 58.26C247.326 57.714 247.554 57.174 247.746 56.616Z" fill="#263238"/>
<path d="M251.058 73.8C251.718 73.722 252.372 73.608 253.026 73.494C253.68 73.38 254.328 73.248 254.976 73.116C255.624 72.984 256.278 72.84 256.92 72.678L257.886 72.438C258.204 72.348 258.528 72.27 258.846 72.168L257.856 72.312L256.878 72.48C256.224 72.588 255.576 72.72 254.922 72.858C254.268 72.996 253.626 73.134 252.984 73.296C252.342 73.458 251.694 73.638 251.058 73.8Z" fill="#263238"/>
<path d="M261.558 67.164C260.622 67.452 259.698 67.764 258.78 68.088C257.862 68.412 256.944 68.742 256.026 69.078C255.108 69.414 254.226 69.762 253.296 70.128L251.94 70.674C251.49 70.86 251.034 71.046 250.59 71.244C251.058 71.1 251.52 70.944 251.982 70.794L253.368 70.32C254.292 70.002 255.204 69.666 256.122 69.33C257.04 68.994 257.922 68.64 258.852 68.28C259.782 67.92 260.664 67.554 261.558 67.164Z" fill="#263238"/>
<path d="M252.882 54.786C252.282 55.59 251.754 56.412 251.202 57.234C250.65 58.056 250.116 58.89 249.588 59.724C249.06 60.558 248.532 61.392 248.022 62.244L247.254 63.516C247.008 63.942 246.756 64.368 246.516 64.8C246.804 64.398 247.08 63.99 247.368 63.6L248.196 62.4C248.742 61.578 249.276 60.744 249.81 59.91C250.344 59.076 250.866 58.242 251.376 57.39C251.886 56.538 252.396 55.65 252.882 54.786Z" fill="#263238"/>
<path d="M248.838 67.89C249.834 67.332 250.812 66.744 251.79 66.15C252.768 65.556 253.728 64.95 254.7 64.35C255.672 63.75 256.626 63.15 257.58 62.49L259.014 61.548C259.482 61.224 259.956 60.906 260.424 60.576C259.926 60.858 259.434 61.176 258.942 61.434L257.472 62.322C256.494 62.922 255.534 63.522 254.562 64.122C253.59 64.722 252.636 65.322 251.682 65.976C250.728 66.63 249.774 67.236 248.838 67.89Z" fill="#263238"/>
<path d="M232.422 93.198C233.202 94.68 234.498 92.91 234.498 92.91C234.498 92.91 233.244 95.91 234.642 97.11C236.04 98.31 237.474 96.084 237.582 95.91C237.516 96.066 236.442 98.844 237.966 99.918C239.49 100.992 240.672 98.58 240.744 98.418C240.744 98.592 240.582 100.818 241.944 101.382C244.254 102.324 244.788 96.612 246.402 95.382C246.402 95.382 248.802 97.872 248.868 97.932C248.934 97.992 249.468 92.532 247.716 90.426C247.464 90.1195 247.115 89.9084 246.726 89.8277C246.338 89.7469 245.933 89.8014 245.58 89.982C245.58 89.982 245.97 88.26 244.794 87.372C244.194 86.922 242.934 87.486 242.934 87.486C243.002 87.0907 242.96 86.6844 242.811 86.3117C242.663 85.9391 242.415 85.6146 242.094 85.374C241.224 84.774 240.096 85.452 240.096 85.452C240.096 85.452 239.724 83.994 238.638 83.694C236.442 83.112 230.754 90.036 232.422 93.198Z" fill="#D3766A"/>
<path d="M239.886 85.56C239.886 85.56 239.886 85.506 239.856 85.524C237.325 87.4055 235.427 90.0132 234.414 93C234.384 93.096 234.528 93.186 234.582 93.084C235.975 90.3314 237.762 87.7967 239.886 85.56Z" fill="#263238"/>
<path d="M242.928 87.474C242.928 87.474 242.928 87.408 242.88 87.432C240.12 89.5384 238.205 92.5626 237.48 95.958C237.48 96.078 237.558 96.204 237.594 96.072C238.2 93.786 240.906 89.544 242.928 87.474Z" fill="#263238"/>
<path d="M240.78 98.706C241.53 95.388 243.264 92.646 245.454 90.084C245.454 90.084 245.454 90.018 245.4 90.036C243.99 90.996 242.766 92.778 241.926 94.236C241.125 95.5805 240.691 97.1114 240.666 98.676C240.666 98.742 240.762 98.772 240.78 98.706Z" fill="#263238"/>
<path d="M234.444 92.928C234.408 93.042 234.612 92.97 234.582 93.084C234.45 93.576 233.892 96.576 234.858 97.08C235.632 97.488 236.712 96.726 237.012 96.27L237.768 95.13L237.456 96.468C237.312 97.0565 237.266 97.6645 237.318 98.268C237.327 98.5503 237.396 98.8274 237.519 99.0816C237.642 99.3358 237.817 99.5615 238.032 99.744C238.237 99.9081 238.492 99.9975 238.755 99.9975C239.018 99.9975 239.273 99.9081 239.478 99.744C239.928 99.3667 240.275 98.8816 240.486 98.334L241.128 96.846L241.014 98.454C240.981 98.9032 241.005 99.3549 241.086 99.798C241.149 100.22 241.335 100.615 241.62 100.932C241.755 101.069 241.925 101.166 242.111 101.211C242.298 101.257 242.493 101.25 242.676 101.19C243.065 100.998 243.39 100.698 243.612 100.326C244.109 99.5295 244.542 98.6949 244.908 97.83C245.112 97.398 245.31 96.966 245.508 96.546C245.706 96.1073 245.997 95.7164 246.36 95.4C246.04 95.748 245.791 96.1558 245.628 96.6C245.442 97.038 245.274 97.482 245.106 97.926C244.791 98.8344 244.389 99.7104 243.906 100.542C243.657 101.001 243.277 101.375 242.814 101.616C242.549 101.721 242.259 101.746 241.98 101.689C241.7 101.631 241.444 101.493 241.242 101.292C240.877 100.907 240.635 100.423 240.546 99.9C240.446 99.4108 240.412 98.9103 240.444 98.412L240.966 98.526C240.723 99.1828 240.308 99.7628 239.766 100.206C239.463 100.444 239.089 100.571 238.704 100.566C238.326 100.543 237.963 100.41 237.66 100.182C237.386 99.9523 237.164 99.6674 237.008 99.3458C236.852 99.0242 236.765 98.6733 236.754 98.316C236.705 97.6466 236.766 96.9738 236.934 96.324L237.378 96.522C236.976 97.086 235.86 98.064 234.582 97.59C233.058 96.732 234.192 93.504 234.444 92.928Z" fill="#263238"/>
<path d="M234.498 92.91C234.246 93.1514 233.958 93.3537 233.646 93.51C233.521 93.5692 233.384 93.5953 233.246 93.5859C233.108 93.5764 232.975 93.5317 232.86 93.456C232.636 93.2496 232.475 92.983 232.398 92.688C232.296 92.364 232.206 92.022 232.128 91.668C232.02 92.0234 231.99 92.3978 232.038 92.766C232.072 93.1802 232.268 93.5642 232.584 93.834C232.764 93.9608 232.979 94.0288 233.199 94.0288C233.419 94.0288 233.634 93.9608 233.814 93.834C234.137 93.609 234.377 93.2845 234.498 92.91Z" fill="#263238"/>
<path d="M207.174 269.064C205.974 268.326 181.818 239.064 181.608 237.342C181.578 237.108 185.256 233.796 189.924 229.638C190.164 229.422 207.648 212.502 207.648 212.502L222.648 230.616L206.244 247.356C206.244 247.356 210.48 262.698 210.516 264.594C210.552 266.49 208.362 269.808 207.174 269.064Z" fill="#D3766A"/>
<path d="M207.99 253.422C207.948 253.326 207.936 253.272 207.954 253.248C207.97 253.305 207.982 253.363 207.99 253.422Z" fill="#92E3A9"/>
<path d="M210.522 264.6C210.552 266.484 208.356 269.814 207.174 269.07C205.992 268.326 181.818 239.07 181.608 237.348C181.572 237.114 185.25 233.802 189.924 229.644L193.68 226.044L209.142 244.434L206.25 247.386C206.25 247.386 210.486 262.698 210.522 264.6Z" fill="#EBEBEB"/>
<path d="M208.11 268.758C206.91 268.008 182.556 238.356 182.346 236.634C182.256 235.986 186.372 232.182 191.472 227.736L191.634 227.598L207.558 246.558L207.228 246.816C207.228 246.816 211.47 262.338 211.506 264.252C211.542 266.166 209.304 269.514 208.11 268.758Z" fill="#92E3A9"/>
<path d="M208.98 267.48C205.002 262.38 188.454 242.184 184.134 237.444C184.098 237.408 184.068 237.444 184.104 237.474C187.938 242.616 204.642 262.674 208.902 267.546C208.992 267.648 209.064 267.6 208.98 267.48Z" fill="white"/>
<path d="M208.494 248.472C207.246 246.198 204.966 244.044 202.332 243.672C202.23 243.672 202.212 243.804 202.284 243.852C204.433 245.236 206.428 246.845 208.236 248.652C208.263 248.676 208.298 248.69 208.334 248.692C208.37 248.694 208.406 248.684 208.436 248.663C208.465 248.642 208.487 248.612 208.498 248.578C208.508 248.543 208.507 248.506 208.494 248.472Z" fill="white"/>
<path d="M208.8 250.59C207.552 248.322 205.278 246.168 202.638 245.79C202.536 245.79 202.518 245.922 202.59 245.97C204.742 247.352 206.74 248.961 208.548 250.77C208.576 250.791 208.609 250.803 208.644 250.803C208.678 250.804 208.712 250.793 208.741 250.773C208.769 250.753 208.79 250.724 208.8 250.691C208.811 250.658 208.811 250.623 208.8 250.59Z" fill="white"/>
<path d="M209.112 252.714C207.864 250.446 205.584 248.286 202.95 247.914C202.848 247.914 202.83 248.046 202.902 248.088C205.053 249.472 207.05 251.081 208.86 252.888C208.887 252.908 208.92 252.919 208.954 252.919C208.987 252.92 209.02 252.91 209.048 252.891C209.076 252.872 209.097 252.844 209.108 252.813C209.12 252.781 209.121 252.746 209.112 252.714Z" fill="white"/>
<path d="M209.544 268.338C209.772 269.04 207.894 270.39 207.438 270.138C206.982 269.886 180.6 237.402 180.246 236.748C179.892 236.094 182.046 234.684 182.682 235.236C183.318 235.788 209.544 268.338 209.544 268.338Z" fill="#263238"/>
<path d="M192.336 235.2C191.646 232.2 186.936 233.238 187.62 236.274C188.304 239.31 193.026 238.26 192.336 235.2Z" fill="white"/>
<path d="M219.666 194.22C218.322 200.82 194.04 223.65 194.04 223.65L213.174 245.742C213.174 245.742 248.988 210.426 246.954 195.81C245.184 183.09 226.146 131.958 226.146 131.958H204.18C204.18 131.958 220.98 187.716 219.666 194.22Z" fill="#37474F"/>
<path d="M219.666 194.22C218.322 200.82 194.04 223.65 194.04 223.65L213.174 245.742C213.174 245.742 248.988 210.426 246.954 195.81C245.184 183.09 226.146 131.958 226.146 131.958H204.18C204.18 131.958 220.98 187.716 219.666 194.22Z" fill="#37474F"/>
<path d="M215.352 240.486C212.808 237.324 213.582 238.194 211.008 235.056C209.742 233.52 201.444 223.446 200.016 222.216C199.986 222.216 199.932 222.216 199.95 222.27C200.91 223.89 209.382 233.826 210.678 235.338C213.312 238.422 212.592 237.51 215.262 240.564C215.31 240.6 215.4 240.546 215.352 240.486Z" fill="#263238"/>
<path d="M222.39 190.998C222.078 189.348 221.718 187.698 221.37 186.054C220.654 182.694 219.898 179.344 219.102 176.004C217.526 169.38 215.806 162.792 213.942 156.24C212.07 149.67 210.09 143.106 207.81 136.662C207.534 135.864 207.21 135.072 206.952 134.262C206.952 134.202 206.832 134.226 206.856 134.262C208.83 140.718 210.864 147.156 212.712 153.648C214.56 160.14 216.264 166.614 217.872 173.142C218.676 176.424 219.426 179.742 220.164 183.006C220.524 184.626 220.876 186.248 221.22 187.872C221.648 189.517 221.955 191.192 222.138 192.882C222.195 194.484 221.743 196.064 220.848 197.394C220.026 198.744 219.048 200.01 218.124 201.282C216.246 203.826 201.534 220.152 200.958 220.698C200.91 220.74 200.958 220.8 201.024 220.764C203.424 218.61 215.424 205.764 217.356 203.238C218.31 201.984 219.234 200.706 220.146 199.422C221.059 198.254 221.795 196.958 222.33 195.576C222.74 194.08 222.761 192.504 222.39 190.998Z" fill="#263238"/>
<path d="M222.348 131.952L218.358 184.284C214.554 166.374 204.186 131.952 204.186 131.952H222.348Z" fill="#263238"/>
<path d="M259.2 275.94C257.88 276.39 219.906 276.492 218.46 275.574C218.256 275.454 218.034 270.51 217.782 264.258C217.782 263.94 213.126 238.332 213.126 238.332L236.652 238.218L241.836 262.878C241.836 262.878 256.386 269.34 257.874 270.51C259.362 271.68 260.508 275.496 259.2 275.94Z" fill="#D3766A"/>
<path d="M259.2 275.94C257.874 276.39 219.906 276.492 218.46 275.574C218.256 275.454 218.028 270.51 217.776 264.258C217.776 264.168 217.422 262.176 216.912 259.332H241.086L241.83 262.878C241.83 262.878 256.38 269.34 257.868 270.51C259.356 271.68 260.508 275.496 259.2 275.94Z" fill="#EBEBEB"/>
<path d="M247.608 265.38C247.512 265.38 247.458 265.326 247.452 265.296L247.608 265.38Z" fill="#92E3A9"/>
<path d="M259.374 275.772C258.03 276.216 219.654 276.042 218.202 275.106C217.638 274.758 217.338 269.166 217.17 262.398V262.2L241.926 262.032V262.452C241.926 262.452 256.584 269.094 258.078 270.288C259.572 271.482 260.712 275.328 259.374 275.772Z" fill="#92E3A9"/>
<path d="M258.942 274.278C252.474 274.092 226.368 273.942 219.942 274.248C219.888 274.248 219.888 274.284 219.942 274.29C226.344 274.614 252.45 274.554 258.942 274.386C259.08 274.38 259.08 274.284 258.942 274.278Z" fill="white"/>
<path d="M243.996 262.524C241.452 262.038 238.338 262.416 236.382 264.222C236.31 264.288 236.382 264.396 236.49 264.372C238.926 263.597 241.439 263.086 243.984 262.848C244.027 262.85 244.069 262.834 244.1 262.805C244.132 262.776 244.15 262.735 244.152 262.692C244.154 262.649 244.138 262.607 244.109 262.576C244.08 262.544 244.039 262.526 243.996 262.524Z" fill="white"/>
<path d="M245.826 263.64C243.282 263.154 240.168 263.532 238.218 265.338C238.14 265.404 238.218 265.512 238.32 265.488C240.757 264.715 243.269 264.204 245.814 263.964C245.835 263.965 245.857 263.961 245.876 263.954C245.896 263.947 245.915 263.935 245.93 263.921C245.946 263.906 245.959 263.889 245.967 263.87C245.976 263.85 245.981 263.829 245.982 263.808C245.983 263.787 245.979 263.766 245.972 263.746C245.965 263.726 245.953 263.707 245.939 263.692C245.924 263.676 245.907 263.663 245.888 263.655C245.868 263.646 245.847 263.641 245.826 263.64Z" fill="white"/>
<path d="M247.662 264.756C245.118 264.27 241.998 264.648 240.048 266.454C239.97 266.52 240.048 266.628 240.156 266.604C242.592 265.829 245.105 265.318 247.65 265.08C247.693 265.082 247.735 265.066 247.766 265.037C247.798 265.008 247.816 264.967 247.818 264.924C247.82 264.881 247.804 264.839 247.775 264.808C247.746 264.776 247.705 264.758 247.662 264.756Z" fill="white"/>
<path d="M259.962 274.398C260.652 274.662 260.49 276.972 259.992 277.152C259.494 277.332 217.656 276.96 216.948 276.798C216.24 276.636 216.51 274.086 217.338 273.954C218.166 273.822 259.962 274.398 259.962 274.398Z" fill="#263238"/>
<path d="M223.482 266.514C220.71 265.11 218.52 269.418 221.304 270.828C224.088 272.238 226.266 267.918 223.482 266.514Z" fill="white"/>
<path d="M224.028 131.958C223.173 135.568 222.542 139.227 222.138 142.914C221.682 147.51 221.106 151.578 220.494 152.082C219.882 152.586 216.33 154.884 215.16 155.598C215.16 155.598 225.96 188.406 228.774 199.338C232.824 215.19 242.502 257.244 242.502 257.244H216C216 257.244 208.842 217.476 205.41 202.386C202.452 189.438 191.172 150.6 191.172 150.6C187.068 140.508 193.986 131.934 193.986 131.934C193.986 131.934 224.028 131.94 224.028 131.958Z" fill="#37474F"/>
<path d="M240.036 252.228C236.118 252.228 237.246 252.156 233.328 252.18C231.414 252.18 218.826 252.27 217.038 252.606C217.002 252.606 217.002 252.684 217.038 252.69C218.838 252.966 231.438 252.69 233.328 252.612C237.246 252.51 236.118 252.492 240.03 252.348C240.046 252.349 240.061 252.343 240.073 252.333C240.085 252.322 240.092 252.307 240.093 252.291C240.094 252.275 240.088 252.26 240.078 252.248C240.067 252.236 240.052 252.229 240.036 252.228Z" fill="#263238"/>
<path d="M222.324 150.786C219.814 152.177 217.429 153.783 215.196 155.586C215.187 155.592 215.178 155.6 215.172 155.61C215.166 155.619 215.161 155.63 215.159 155.641C215.157 155.652 215.157 155.664 215.159 155.675C215.161 155.686 215.166 155.697 215.172 155.706C215.178 155.715 215.186 155.724 215.196 155.73C215.205 155.736 215.216 155.741 215.227 155.743C215.238 155.745 215.25 155.745 215.261 155.743C215.272 155.741 215.283 155.736 215.292 155.73C217.692 154.218 220.182 152.73 222.492 151.098C222.533 151.076 222.564 151.038 222.578 150.993C222.591 150.948 222.586 150.899 222.564 150.858C222.542 150.817 222.504 150.786 222.459 150.772C222.414 150.759 222.365 150.764 222.324 150.786Z" fill="#263238"/>
<path d="M220.35 132.942C220.35 132.852 220.17 132.858 220.188 132.942C220.636 135.829 220.939 138.737 221.094 141.654C221.184 143.01 221.256 150.54 218.856 150.366C218.46 150.366 218.202 149.982 218.052 149.412C217.94 148.647 217.924 147.871 218.004 147.102C218.004 145.518 218.004 143.94 217.878 142.362C217.697 139.42 217.213 136.504 216.432 133.662C216.425 133.645 216.413 133.632 216.397 133.623C216.381 133.615 216.362 133.612 216.345 133.616C216.327 133.619 216.311 133.629 216.3 133.643C216.288 133.656 216.282 133.674 216.282 133.692C216.978 137.704 217.368 141.764 217.446 145.836C217.446 147.792 216.942 150.828 218.988 150.816C221.034 150.804 221.646 145.758 221.694 144.396C221.744 140.536 221.293 136.686 220.35 132.942Z" fill="#263238"/>
<path d="M218.952 150.564C218.822 151.093 218.728 151.63 218.67 152.172C218.592 152.598 218.592 153.036 218.67 153.462C218.677 153.479 218.688 153.494 218.703 153.504C218.718 153.514 218.736 153.52 218.754 153.52C218.772 153.52 218.79 153.514 218.805 153.504C218.82 153.494 218.832 153.479 218.838 153.462C219.018 153.048 219.136 152.609 219.186 152.16C219.288 151.662 219.402 151.164 219.486 150.66C219.499 150.589 219.483 150.516 219.442 150.457C219.401 150.398 219.338 150.358 219.267 150.345C219.196 150.332 219.123 150.348 219.064 150.389C219.005 150.43 218.965 150.493 218.952 150.564Z" fill="#263238"/>
<path d="M213.684 243.492C213.612 242.892 213.534 242.292 213.45 241.692C213.288 240.546 213.096 239.406 212.916 238.26C212.562 235.962 212.172 233.676 211.764 231.39C210.954 226.824 210.018 222.276 209.028 217.752C208.47 215.19 207.828 212.664 207.138 210.132C207.09 209.958 206.844 210.042 206.874 210.216C207.288 212.526 207.69 214.842 208.164 217.146C208.638 219.45 209.106 221.742 209.562 224.04C210.462 228.582 211.302 233.142 212.202 237.69C212.46 238.974 212.688 240.258 212.94 241.542C213.066 242.184 213.192 242.82 213.33 243.462C213.468 244.104 213.666 244.722 213.774 245.364C213.774 245.424 213.87 245.394 213.864 245.364C213.762 244.734 213.75 244.11 213.684 243.492Z" fill="#263238"/>
<path d="M231.498 209.166C230.634 204.876 229.476 200.646 228.312 196.434C225.96 187.956 223.2 179.604 220.44 171.234L218.04 164.034C217.638 162.834 215.694 156.348 215.454 155.73C215.424 155.67 215.334 155.694 215.352 155.73C215.91 157.938 216.672 161.16 217.32 163.35C217.968 165.54 218.652 167.658 219.324 169.812C220.644 174.042 221.988 178.266 223.266 182.508C225.798 190.908 228.318 199.266 230.37 207.786C230.97 210.186 231.522 212.55 232.044 214.95C232.566 217.35 233.022 219.75 233.52 222.15C233.52 222.166 233.526 222.181 233.538 222.192C233.549 222.204 233.564 222.21 233.58 222.21C233.596 222.21 233.611 222.204 233.623 222.192C233.634 222.181 233.64 222.166 233.64 222.15C233.226 217.8 232.356 213.462 231.498 209.166Z" fill="#263238"/>
<path d="M215.436 231.6C214.014 223.422 212.31 215.292 210.42 207.204C208.53 199.116 206.412 191.004 204.084 183C201.756 174.996 199.2 167.04 196.41 159.174C195.102 155.448 193.5 151.758 192.906 147.846C192.075 142.823 192.918 137.666 195.306 133.17C195.31 133.164 195.312 133.157 195.313 133.15C195.314 133.142 195.313 133.135 195.311 133.128C195.309 133.121 195.306 133.115 195.301 133.109C195.297 133.103 195.291 133.099 195.285 133.095C195.279 133.091 195.272 133.089 195.265 133.088C195.257 133.087 195.25 133.088 195.243 133.09C195.236 133.092 195.23 133.095 195.224 133.1C195.218 133.104 195.214 133.11 195.21 133.116C192.876 136.602 190.278 143.826 194.61 155.412C196.05 159.276 197.292 163.212 198.57 167.118C199.882 171.146 201.14 175.184 202.344 179.232C204.744 187.266 206.94 195.354 208.944 203.496C210.948 211.638 212.694 219.834 214.248 228.066C215.802 236.298 216.426 239.118 217.752 247.416C217.926 248.496 218.064 249.582 218.208 250.668C218.208 250.728 218.31 250.728 218.304 250.668C217.242 242.442 216.852 239.754 215.436 231.6Z" fill="#263238"/>
<path d="M227.178 132.738L225.468 121.398C225.468 121.398 228.834 117.456 226.698 112.782C225.6 110.4 218.802 97.56 214.8 94.62C211.038 91.86 206.316 94.464 204.546 96.834C199.452 103.656 195.75 110.202 192.804 132.552L227.178 132.738Z" fill="#92E3A9"/>
<path d="M219.666 119.592C217.937 119.749 216.222 120.035 214.536 120.45C213.702 120.666 212.88 120.924 212.064 121.194C211.656 121.332 211.242 121.452 210.834 121.572C210.404 121.709 209.959 121.794 209.508 121.824C209.472 121.824 209.472 121.884 209.508 121.89C209.932 121.907 210.357 121.897 210.78 121.86C211.185 121.809 211.586 121.731 211.98 121.626C212.832 121.416 213.666 121.164 214.518 120.942C216.222 120.498 217.932 120.054 219.666 119.742C219.768 119.718 219.744 119.58 219.666 119.592Z" fill="#263238"/>
<path d="M223.944 121.11C222.519 120.962 221.087 120.898 219.654 120.918C218.94 120.918 218.226 120.978 217.512 121.05C217.176 121.086 216.834 121.122 216.492 121.17C216.15 121.218 215.754 121.314 215.382 121.362C215.374 121.362 215.366 121.365 215.361 121.371C215.355 121.376 215.352 121.384 215.352 121.392C215.352 121.4 215.355 121.408 215.361 121.413C215.366 121.419 215.374 121.422 215.382 121.422C215.736 121.392 216.096 121.422 216.45 121.422H217.518L219.66 121.362C221.088 121.308 222.516 121.272 223.944 121.266C223.954 121.266 223.964 121.264 223.974 121.26C223.983 121.256 223.992 121.25 223.999 121.243C224.006 121.236 224.012 121.227 224.016 121.218C224.02 121.208 224.022 121.198 224.022 121.188C224.022 121.178 224.02 121.168 224.016 121.158C224.012 121.149 224.006 121.14 223.999 121.133C223.992 121.126 223.983 121.12 223.974 121.116C223.964 121.112 223.954 121.11 223.944 121.11Z" fill="#263238"/>
<path d="M204.312 96.6C193.578 106.722 183.636 123.438 184.344 132.216C185.046 140.886 187.986 139.77 188.838 139.638C194.04 138.822 204.18 113.604 207.042 103.44C209.904 93.276 206.964 94.098 204.312 96.6Z" fill="#D3766A"/>
<path d="M207.39 86.772C205.524 86.718 201.168 88.86 200.082 91.536C198.996 94.212 199.854 98.046 200.718 98.274C201.582 98.502 204.918 97.566 207.024 95.838C209.13 94.11 208.308 86.802 207.39 86.772Z" fill="#263238"/>
<path d="M207.396 86.784C207.45 86.784 207.438 86.658 207.396 86.67C205.824 86.922 204.246 87.768 202.836 88.47C201.657 88.9856 200.598 89.7417 199.728 90.69C199.332 91.1643 199.044 91.719 198.883 92.3157C198.723 92.9125 198.694 93.537 198.798 94.146C198.982 95.6348 199.544 97.0517 200.43 98.262C200.46 98.292 200.526 98.262 200.502 98.226C199.302 95.754 198.054 92.688 200.31 90.426C202.2 88.512 204.978 87.804 207.396 86.784Z" fill="#263238"/>
<path d="M200.85 97.548C199.326 98.046 195.822 101.79 195.708 104.892C195.594 107.994 198.828 111.93 199.656 112.092C200.484 112.254 203.4 108.762 204.126 106.452C204.618 104.916 203.712 103.398 203.064 101.838C202.11 99.552 201.084 97.47 200.85 97.548Z" fill="#263238"/>
<path d="M204.996 105.918C204.888 102.798 202.596 100.122 201.054 97.584H201.006C202.074 100.098 204.096 102.162 204.66 104.898C204.861 105.693 204.867 106.525 204.678 107.323C204.489 108.121 204.11 108.862 203.574 109.482C202.578 110.568 201.174 111.24 199.932 111.972C199.848 112.02 199.932 112.14 200.016 112.092C202.536 110.73 205.104 109.134 204.996 105.918Z" fill="#263238"/>
<path d="M200.562 97.89C200.634 97.836 200.562 97.722 200.49 97.776C198.462 99.246 196.08 101.292 195.312 103.776C194.484 106.458 196.26 108.768 197.826 110.748C197.826 110.748 197.886 110.748 197.868 110.748C196.314 108.726 194.592 106.176 195.606 103.548C196.482 101.214 198.66 99.318 200.562 97.89Z" fill="#263238"/>
<path d="M200.148 111.408C198.678 113.55 196.98 116.616 198.174 118.68C199.368 120.744 203.052 123.162 203.298 123.078C203.544 122.994 206.694 119.232 206.628 116.322C206.562 113.412 200.34 111.126 200.148 111.408Z" fill="#263238"/>
<path d="M203.544 123.192C201.396 122.316 198.792 121.002 197.904 118.686C197.016 116.37 198.714 113.55 199.932 111.756H199.902C198.498 113.49 196.902 116.346 197.676 118.644C198.45 120.942 201.276 122.742 203.52 123.306C203.568 123.288 203.586 123.21 203.544 123.192Z" fill="#263238"/>
<path d="M203.196 122.868C202.786 123.702 202.551 124.612 202.507 125.541C202.462 126.47 202.609 127.398 202.938 128.268C204.282 131.718 202.728 131.802 199.8 134.67C197.316 137.07 198.6 140.706 201.12 141.39C201.12 141.39 199.038 139.92 200.412 137.79C202.05 135.234 208.842 134.52 209.544 129.642C210.462 123.312 203.196 122.868 203.196 122.868Z" fill="#263238"/>
<path d="M202.8 125.052C202.8 124.986 202.698 124.962 202.686 125.052C202.523 125.68 202.477 126.333 202.548 126.978C202.65 127.812 203.064 128.544 203.22 129.378C203.616 131.466 201.504 132.642 200.058 133.644C198.126 134.982 197.232 137.184 198.372 139.386C198.372 139.416 198.438 139.386 198.42 139.386C198.076 138.703 197.925 137.939 197.983 137.177C198.041 136.415 198.306 135.683 198.75 135.06C199.638 133.86 201.15 133.332 202.176 132.312C202.896 131.61 203.52 130.758 203.424 129.708C203.324 129.14 203.163 128.585 202.944 128.052C202.637 127.081 202.588 126.048 202.8 125.052Z" fill="#263238"/>
<path d="M203.952 122.934C203.922 122.934 203.916 122.976 203.952 122.982C205.752 123.432 207.654 123.846 208.962 125.304C210.372 126.87 210.51 129.198 209.754 131.1C208.902 133.23 206.88 133.65 204.954 134.346C203.514 134.76 202.211 135.551 201.18 136.638C201.15 136.674 201.21 136.722 201.246 136.692C202.968 135.042 205.152 134.55 207.3 133.692C208.113 133.397 208.825 132.878 209.356 132.195C209.887 131.513 210.214 130.694 210.3 129.834C210.894 125.748 207.636 123.438 203.952 122.934Z" fill="#263238"/>
<path d="M204.912 84.18C204.769 84.1123 204.605 84.1008 204.453 84.1476C204.302 84.1944 204.173 84.2962 204.093 84.433C204.012 84.5697 203.986 84.7317 204.019 84.8869C204.051 85.0421 204.141 85.1795 204.27 85.272C204.414 85.3397 204.577 85.3512 204.729 85.3044C204.88 85.2576 205.009 85.1558 205.09 85.0191C205.17 84.8823 205.196 84.7204 205.163 84.5651C205.131 84.4099 205.041 84.2725 204.912 84.18Z" fill="#92E3A9"/>
<path d="M205.752 85.014C205.608 84.9396 205.441 84.923 205.285 84.9678C205.129 85.0125 204.996 85.1151 204.913 85.2546C204.83 85.394 204.804 85.5599 204.84 85.7181C204.875 85.8764 204.97 86.0152 205.104 86.106C205.248 86.1804 205.415 86.1969 205.571 86.1522C205.727 86.1075 205.86 86.0049 205.943 85.8654C206.025 85.726 206.052 85.5601 206.016 85.4019C205.981 85.2436 205.886 85.1048 205.752 85.014Z" fill="#92E3A9"/>
<path d="M206.724 85.698C206.581 85.6303 206.417 85.6188 206.265 85.6656C206.114 85.7124 205.985 85.8142 205.905 85.9509C205.824 86.0877 205.798 86.2496 205.831 86.4049C205.863 86.5601 205.953 86.6975 206.082 86.79C206.226 86.8577 206.389 86.8692 206.541 86.8224C206.692 86.7756 206.821 86.6738 206.902 86.537C206.982 86.4003 207.008 86.2384 206.976 86.0831C206.943 85.9279 206.853 85.7905 206.724 85.698Z" fill="#92E3A9"/>
<path d="M207.756 86.232C207.612 86.1576 207.445 86.141 207.289 86.1858C207.133 86.2305 207 86.3331 206.917 86.4726C206.835 86.612 206.808 86.7779 206.844 86.9361C206.879 87.0944 206.974 87.2331 207.108 87.324C207.252 87.3984 207.419 87.4149 207.575 87.3702C207.731 87.3255 207.864 87.2229 207.947 87.0834C208.03 86.944 208.056 86.7781 208.02 86.6199C207.985 86.4616 207.89 86.3228 207.756 86.232Z" fill="#92E3A9"/>
<path d="M208.884 86.592C208.74 86.5243 208.577 86.5128 208.425 86.5596C208.274 86.6064 208.145 86.7082 208.065 86.845C207.984 86.9817 207.958 87.1436 207.991 87.2989C208.023 87.4541 208.113 87.5915 208.242 87.684C208.386 87.7517 208.549 87.7632 208.701 87.7164C208.852 87.6696 208.981 87.5678 209.061 87.431C209.142 87.2943 209.168 87.1323 209.135 86.9771C209.103 86.8219 209.013 86.6845 208.884 86.592Z" fill="#92E3A9"/>
<path d="M210 86.736C209.856 86.6616 209.689 86.6451 209.533 86.6898C209.377 86.7345 209.244 86.8371 209.161 86.9766C209.079 87.116 209.052 87.2819 209.088 87.4401C209.123 87.5984 209.218 87.7372 209.352 87.828C209.496 87.9024 209.663 87.9189 209.819 87.8742C209.975 87.8295 210.108 87.7269 210.191 87.5874C210.274 87.448 210.3 87.2821 210.264 87.1238C210.229 86.9656 210.134 86.8268 210 86.736Z" fill="#92E3A9"/>
<path d="M208.104 95.4C208.278 96.036 211.782 100.2 214.548 99C215.574 98.562 215.19 95.202 215.19 95.202L216.288 89.334L208.8 84.924C208.8 84.924 208.032 95.112 208.104 95.4Z" fill="#D3766A"/>
<path d="M208.542 88.728C209.181 90.1544 210.105 91.4342 211.259 92.488C212.413 93.5419 213.772 94.3472 215.25 94.854L216.288 89.31L208.8 84.924C208.8 84.924 208.692 86.646 208.542 88.728Z" fill="#263238"/>
<path d="M221.7 79.938C223.464 89.538 217.902 91.704 215.826 92.082C213.942 92.424 207.48 93.354 204.732 83.97C201.984 74.586 205.902 70.716 210.168 69.702C214.434 68.688 219.936 70.314 221.7 79.938Z" fill="#D3766A"/>
<path d="M218.916 79.158C218.688 79.158 218.478 79.11 218.25 79.086C218.01 79.0934 217.774 79.0217 217.578 78.882C217.524 78.8264 217.49 78.7538 217.482 78.6764C217.474 78.5989 217.493 78.5212 217.536 78.456C217.635 78.3396 217.764 78.2519 217.908 78.2023C218.053 78.1527 218.208 78.1429 218.358 78.174C218.674 78.1857 218.974 78.3164 219.198 78.54C219.246 78.5939 219.276 78.6604 219.287 78.7314C219.297 78.8025 219.287 78.8751 219.257 78.9404C219.228 79.0058 219.179 79.0611 219.119 79.0997C219.058 79.1383 218.988 79.1586 218.916 79.158Z" fill="#263238"/>
<path d="M212.328 79.908C212.546 79.8518 212.76 79.7837 212.97 79.704C213.201 79.6587 213.411 79.541 213.57 79.368C213.611 79.3034 213.629 79.2269 213.622 79.1508C213.614 79.0746 213.581 79.0032 213.528 78.948C213.407 78.8526 213.262 78.7913 213.109 78.7702C212.956 78.7491 212.801 78.7691 212.658 78.828C212.354 78.907 212.089 79.0949 211.914 79.356C211.876 79.4195 211.857 79.493 211.861 79.567C211.865 79.6411 211.89 79.7124 211.935 79.7717C211.979 79.8311 212.04 79.8757 212.111 79.9C212.181 79.9243 212.256 79.9271 212.328 79.908Z" fill="#263238"/>
<path d="M213.966 82.23C213.966 82.23 213.918 82.266 213.918 82.29C214.026 82.95 214.032 83.724 213.462 84.018C213.462 84.018 213.462 84.06 213.462 84.054C214.2 83.862 214.2 82.836 213.966 82.23Z" fill="#263238"/>
<path d="M213.288 81.6C212.214 81.648 212.394 83.79 213.39 83.748C214.386 83.706 214.2 81.6 213.288 81.6Z" fill="#263238"/>
<path d="M212.88 81.762C212.7 81.894 212.538 82.128 212.31 82.17C212.082 82.212 211.836 82.008 211.65 81.804C211.65 81.804 211.608 81.804 211.614 81.804C211.644 82.218 211.836 82.62 212.28 82.65C212.724 82.68 212.946 82.284 213.012 81.858C213 81.81 212.946 81.702 212.88 81.762Z" fill="#263238"/>
<path d="M217.878 81.714C217.878 81.714 217.932 81.714 217.932 81.768C217.932 82.434 218.112 83.19 218.73 83.364V83.406C217.986 83.358 217.8 82.35 217.878 81.714Z" fill="#263238"/>
<path d="M218.4 81C219.462 80.838 219.708 82.974 218.724 83.124C217.74 83.274 217.53 81.108 218.4 81Z" fill="#263238"/>
<path d="M218.88 81.06C219.06 81.156 219.252 81.342 219.48 81.33C219.708 81.318 219.864 81.072 219.984 80.832H220.02C220.08 81.24 220.02 81.678 219.612 81.804C219.204 81.93 218.958 81.6 218.814 81.204C218.76 81.15 218.808 81 218.88 81.06Z" fill="#263238"/>
<path d="M214.584 87.756C214.74 87.912 214.902 88.128 215.142 88.152C215.389 88.1519 215.633 88.0966 215.856 87.99C215.856 87.99 215.898 87.99 215.886 88.026C215.789 88.1549 215.66 88.2557 215.511 88.3179C215.362 88.3802 215.2 88.4016 215.04 88.38C214.903 88.343 214.781 88.2662 214.688 88.1594C214.595 88.0526 214.536 87.9205 214.518 87.78C214.517 87.7719 214.519 87.7637 214.523 87.7567C214.527 87.7497 214.534 87.7444 214.542 87.7416C214.549 87.7388 214.558 87.7387 214.565 87.7413C214.573 87.744 214.58 87.7491 214.584 87.756Z" fill="#263238"/>
<path d="M217.248 85.08C217.344 85.562 217.414 86.0486 217.458 86.538C217.458 86.58 217.35 86.61 217.194 86.622C216.795 86.7141 216.378 86.6951 215.989 86.5672C215.599 86.4392 215.253 86.2071 214.986 85.896C214.95 85.854 214.986 85.8 215.052 85.83C215.671 86.2065 216.394 86.3747 217.116 86.31C217.146 86.178 216.738 84.63 216.816 84.618C217.181 84.6339 217.542 84.6985 217.89 84.81C217.56 82.74 216.906 80.742 216.606 78.678C216.606 78.606 216.702 78.576 216.726 78.642C217.502 80.7665 218.063 82.9635 218.4 85.2C218.4 85.458 217.44 85.152 217.248 85.08Z" fill="#263238"/>
<path d="M217.056 86.4C216.835 86.7919 216.517 87.1204 216.132 87.354C215.916 87.4715 215.669 87.5197 215.424 87.492C214.89 87.432 214.824 86.964 214.824 86.55C214.846 86.3291 214.895 86.1115 214.968 85.902C215.592 86.2882 216.325 86.4628 217.056 86.4Z" fill="#263238"/>
<path d="M216.132 87.348C215.916 87.4655 215.669 87.5137 215.424 87.486C214.89 87.426 214.824 86.958 214.824 86.544C215.102 86.504 215.385 86.5626 215.624 86.7094C215.862 86.8563 216.042 87.0823 216.132 87.348Z" fill="#FF9ABB"/>
<path d="M214.584 72.186C214.807 73.029 214.771 73.9194 214.482 74.742C213.456 76.956 210.804 76.392 209.91 77.274C209.016 78.156 209.382 79.788 208.62 80.61C207.57 81.75 206.118 81.318 205.95 82.086C205.782 82.854 205.914 84.486 204.954 84.78C203.994 85.074 199.02 69.666 211.962 69.414C213.305 69.3091 214.656 69.4556 215.946 69.846C219.636 70.89 221.01 77.112 221.01 77.112C220.542 77.1363 220.077 77.0169 219.678 76.77C219.078 76.23 218.826 75.732 218.376 75.39C217.668 74.844 217.284 75.054 216.576 74.526C215.772 73.8765 215.097 73.083 214.584 72.186Z" fill="#263238"/>
<path d="M214.386 71.484C214.588 72.1131 214.717 72.7634 214.77 73.422C214.857 74.0632 214.77 74.7161 214.518 75.312C214.191 75.854 213.68 76.2606 213.078 76.458C212.478 76.68 211.818 76.752 211.17 77.016C210.838 77.152 210.548 77.3735 210.33 77.658C210.145 77.9562 210.022 78.289 209.97 78.636C209.903 79.2755 209.665 79.885 209.28 80.4C209.069 80.6371 208.809 80.825 208.518 80.9504C208.226 81.0759 207.911 81.1358 207.594 81.126C206.958 81.126 206.256 80.958 205.632 81.246C206.274 81.012 206.928 81.246 207.588 81.282C207.932 81.3073 208.278 81.2564 208.601 81.133C208.923 81.0096 209.215 80.8167 209.454 80.568C209.894 80.0365 210.17 79.3879 210.246 78.702C210.297 78.393 210.41 78.0973 210.576 77.832C210.763 77.5936 211.012 77.411 211.296 77.304C211.896 77.052 212.544 76.968 213.174 76.704C213.498 76.5838 213.802 76.4137 214.074 76.2C214.357 75.9935 214.584 75.7191 214.734 75.402C214.98 74.7598 215.044 74.0623 214.92 73.386C214.814 72.7341 214.634 72.0961 214.386 71.484Z" fill="#263238"/>
<path d="M214.632 72.06C214.755 72.6658 214.956 73.2528 215.232 73.806C215.513 74.3851 215.957 74.869 216.51 75.198C216.791 75.3363 217.084 75.4468 217.386 75.528C217.654 75.6123 217.893 75.7703 218.076 75.984C218.234 76.2503 218.419 76.4996 218.628 76.728C218.859 76.9426 219.136 77.1008 219.438 77.19C219.17 77.0514 218.933 76.8595 218.742 76.626C218.562 76.3811 218.405 76.12 218.274 75.846C218.081 75.5693 217.806 75.3596 217.488 75.246C217.205 75.1611 216.93 75.0506 216.666 74.916C216.166 74.6125 215.752 74.1847 215.466 73.674C215.153 73.1549 214.874 72.6157 214.632 72.06Z" fill="#263238"/>
<path d="M206.682 84C206.682 84 204.126 81.288 202.866 82.248C201.606 83.208 203.844 87.348 205.542 87.708C205.756 87.7693 205.981 87.7866 206.202 87.759C206.423 87.7314 206.637 87.6594 206.829 87.5474C207.022 87.4353 207.19 87.2855 207.324 87.1069C207.457 86.9283 207.553 86.7246 207.606 86.508L206.682 84Z" fill="#D3766A"/>
<path d="M203.538 83.436C203.508 83.436 203.538 83.472 203.538 83.478C204.738 83.772 205.488 84.726 206.064 85.752C205.981 85.6487 205.877 85.5646 205.759 85.5052C205.641 85.4459 205.511 85.4128 205.379 85.4083C205.247 85.4037 205.115 85.4278 204.993 85.4788C204.871 85.5299 204.762 85.6067 204.672 85.704C204.672 85.704 204.672 85.77 204.714 85.758C204.903 85.666 205.116 85.635 205.324 85.6694C205.531 85.7038 205.723 85.8019 205.872 85.95C206.124 86.1956 206.348 86.4694 206.538 86.766C206.604 86.856 206.778 86.766 206.724 86.664C206.52 85.2 205.104 83.352 203.538 83.436Z" fill="#263238"/>
<path d="M219.072 98.58L212.814 115.278C212.574 115.764 212.778 116.202 213.276 116.256L222.138 117.252C222.411 117.261 222.682 117.194 222.918 117.057C223.155 116.92 223.348 116.719 223.476 116.478L229.734 99.78C229.805 99.6922 229.85 99.5861 229.864 99.4739C229.877 99.3617 229.859 99.2479 229.811 99.1457C229.762 99.0435 229.686 98.957 229.591 98.8962C229.496 98.8354 229.385 98.8028 229.272 98.802L220.404 97.8C220.131 97.7909 219.861 97.8594 219.625 97.9974C219.39 98.1355 219.198 98.3375 219.072 98.58Z" fill="#37474F"/>
<path d="M220.122 98.694L213.864 115.386C213.793 115.474 213.748 115.58 213.734 115.692C213.721 115.804 213.739 115.918 213.787 116.02C213.836 116.122 213.912 116.209 214.007 116.27C214.102 116.331 214.213 116.363 214.326 116.364L223.2 117.36C223.472 117.37 223.742 117.302 223.978 117.165C224.213 117.028 224.406 116.827 224.532 116.586L230.79 99.888C231.03 99.402 230.826 98.964 230.328 98.91L221.46 97.914C221.186 97.9045 220.915 97.9727 220.678 98.1107C220.442 98.2487 220.249 98.451 220.122 98.694Z" fill="#455A64"/>
<path d="M222.468 99.75C222.449 99.8997 222.386 100.04 222.286 100.154C222.187 100.268 222.056 100.349 221.911 100.389C221.765 100.428 221.611 100.423 221.468 100.375C221.325 100.327 221.2 100.237 221.108 100.117C221.016 99.9974 220.962 99.8531 220.952 99.7025C220.942 99.5519 220.977 99.4018 221.053 99.2712C221.129 99.1406 221.241 99.0354 221.377 98.969C221.512 98.9025 221.664 98.8778 221.814 98.898C221.913 98.9106 222.009 98.9426 222.095 98.9923C222.182 99.0421 222.258 99.1084 222.319 99.1877C222.379 99.2669 222.424 99.3574 222.45 99.4539C222.475 99.5504 222.481 99.651 222.468 99.75Z" fill="#263238"/>
<path d="M187.632 139.728C191.55 139.914 196.104 136.464 207.798 126.198C209.412 124.782 202.458 110.67 200.652 112.098C198.378 113.898 189.942 121.368 189.396 121.992C184.8 127.26 184.974 139.602 187.632 139.728Z" fill="#D3766A"/>
<path d="M196.584 116.922C196.584 116.922 199.698 111.6 202.194 109.308C204.856 106.994 208.039 105.36 211.47 104.544C215.172 103.656 224.736 104.058 225.102 106.836C225.432 109.344 215.676 108.438 215.676 108.438C215.676 108.438 225.774 107.724 225.612 110.838C225.45 113.952 214.2 112.2 214.2 112.2C214.2 112.2 224.592 111.696 223.92 114.864C223.416 117.264 213.12 116.298 213.12 116.298C213.12 116.298 222.054 115.926 221.64 118.41C221.184 121.158 211.632 120.864 211.632 120.864C209.514 127.002 205.998 129.06 203.316 130.224C202.668 130.524 196.584 116.922 196.584 116.922Z" fill="#D3766A"/>
<path d="M212.166 108.462C213.366 108.336 214.566 108.198 215.736 108.174C216.906 108.15 218.136 108.174 219.306 108.264C220.859 108.355 222.396 108.618 223.89 109.05C221.184 108.45 216.924 108.48 215.73 108.504C214.536 108.528 213.33 108.504 212.166 108.504V108.462Z" fill="#263238"/>
<path d="M212.166 112.764C213.684 112.668 215.166 112.512 216.708 112.482C218.25 112.452 219.666 112.56 221.178 112.632C221.292 112.632 221.256 112.698 221.136 112.698C219.624 112.698 218.22 112.788 216.702 112.794C215.184 112.8 213.672 112.74 212.166 112.794V112.764Z" fill="#263238"/>
<path d="M211.5 116.454C213.825 116.248 216.166 116.282 218.484 116.556C218.598 116.556 218.538 116.64 218.418 116.64C216.096 116.556 214.278 116.478 211.512 116.532C211.47 116.532 211.452 116.46 211.5 116.454Z" fill="#263238"/>
<path d="M185.91 131.286C186.05 128.476 186.854 125.739 188.256 123.3C190.914 119.832 195.138 116.664 198.384 113.73C199.366 111.992 200.631 110.431 202.128 109.11C203.622 107.757 205.376 106.722 207.282 106.068C205.44 106.831 203.755 107.93 202.314 109.308C200.86 110.691 199.622 112.285 198.642 114.036C195.45 116.988 191.256 120.138 188.532 123.498C187.106 125.879 186.212 128.539 185.91 131.298V131.286Z" fill="#263238"/>
<path d="M171.408 64.8C171.669 67.3011 172.62 69.6806 174.155 71.6726C175.689 73.6646 177.748 75.1909 180.1 76.0809C182.452 76.9709 185.005 77.1896 187.474 76.7127C189.943 76.2357 192.231 75.0819 194.082 73.38L200.868 74.4L197.472 68.532C198.323 66.4659 198.645 64.22 198.408 61.998C198.033 58.4176 196.252 55.1327 193.455 52.8659C190.658 50.5992 187.075 49.5362 183.495 49.911C179.915 50.2857 176.63 52.0675 174.363 54.8642C172.096 57.6609 171.033 61.2436 171.408 64.824V64.8Z" fill="white"/>
<path d="M175.47 53.586C177.726 51.3885 180.67 50.0351 183.807 49.7535C186.944 49.4719 190.082 50.2794 192.693 52.04C195.304 53.8005 197.23 56.4069 198.145 59.4203C199.06 62.4338 198.909 65.6706 197.718 68.586V68.352L201.096 74.232L201.348 74.67L200.856 74.592L194.07 73.548L194.232 73.5C192.346 75.2087 190.021 76.3577 187.518 76.818C186.898 76.933 186.27 76.9972 185.64 77.01C185.012 77.0431 184.382 77.031 183.756 76.974C182.504 76.8545 181.274 76.5617 180.102 76.104C178.931 75.6613 177.828 75.0553 176.826 74.304C176.323 73.9368 175.846 73.5359 175.398 73.104C174.958 72.6592 174.547 72.1862 174.168 71.688C172.134 69.0357 171.144 65.7287 171.387 62.3949C171.631 59.0611 173.09 55.9327 175.488 53.604L175.47 53.586ZM174.186 71.64C174.937 72.6387 175.837 73.5151 176.856 74.238C177.853 74.9834 178.955 75.5778 180.126 76.002C181.293 76.4345 182.515 76.7031 183.756 76.8C184.373 76.842 184.993 76.842 185.61 76.8C186.229 76.7721 186.845 76.6959 187.452 76.572C189.888 76.0838 192.139 74.9241 193.95 73.224L194.016 73.164H194.112L200.904 74.118L200.664 74.472L197.244 68.616L197.184 68.508L197.232 68.382C197.984 66.5071 198.31 64.4884 198.186 62.472C198.052 60.4527 197.463 58.4898 196.464 56.73C195.447 54.977 194.061 53.4661 192.402 52.302C190.728 51.1458 188.811 50.3885 186.798 50.088C184.14 49.6792 181.42 50.0789 178.991 51.2353C176.563 52.3916 174.538 54.2512 173.179 56.5728C171.821 58.8943 171.192 61.5705 171.374 64.2541C171.555 66.9377 172.539 69.5047 174.198 71.622L174.186 71.64Z" fill="#263238"/>
<path d="M183.414 71.118L177.612 65.25L179.562 63.33L182.946 66.756L189.984 55.728L192.288 57.198L183.414 71.118Z" fill="#92E3A9"/>
<path d="M138.696 276.336H74.0281L83.4601 210.462H129.27L138.696 276.336Z" fill="#37474F"/>
<path d="M129.264 210.462L122.082 276.336H138.696L129.264 210.462Z" fill="#455A64"/>
<path d="M96.36 215.004L94.338 214.578C94.338 214.518 95.538 208.986 96.774 203.4C98.13 197.364 104.07 194.586 109.032 195.384C112.746 195.984 116.862 198.882 116.232 205.074C115.566 211.674 115.032 214.824 115.032 214.956L112.992 214.626C112.992 214.626 113.508 211.422 114.162 204.87C114.636 200.112 111.642 197.904 108.678 197.424C104.664 196.776 99.858 199.002 98.766 203.85C97.542 209.4 96.372 214.95 96.36 215.004Z" fill="#263238"/>
<path d="M122.958 275.832C124.284 274.884 125.664 274.032 127.038 273.15C128.412 272.268 129.816 271.47 131.238 270.666L131.43 270.552L131.61 270.684C132.702 271.506 133.794 272.328 134.856 273.192C135.918 274.056 136.986 274.908 138.006 275.826C136.806 275.118 135.69 274.362 134.562 273.588C133.434 272.814 132.312 272.034 131.208 271.23H131.574C130.176 272.052 128.754 272.844 127.326 273.63C125.898 274.416 124.44 275.154 122.958 275.832Z" fill="white"/>
<path d="M131.4 270.96C131.118 266.76 130.908 262.56 130.71 258.36C130.512 254.16 130.368 249.96 130.2 245.76C130.032 241.56 129.936 237.36 129.846 233.16L129.732 226.8C129.732 224.7 129.678 222.6 129.684 220.488C129.834 222.588 129.936 224.688 130.068 226.788L130.38 233.094C130.578 237.294 130.716 241.494 130.884 245.694C131.052 249.894 131.148 254.094 131.232 258.294C131.316 262.494 131.4 266.748 131.4 270.96Z" fill="white"/>
<path d="M98.094 214.8C98.0952 215.344 97.9349 215.876 97.6334 216.329C97.3319 216.782 96.9028 217.135 96.4004 217.344C95.898 217.552 95.345 217.607 94.8114 217.501C94.2778 217.396 93.7876 217.134 93.4029 216.749C93.0182 216.364 92.7564 215.874 92.6505 215.341C92.5447 214.807 92.5996 214.254 92.8084 213.752C93.0171 213.249 93.3702 212.82 93.8231 212.519C94.2759 212.217 94.808 212.057 95.352 212.058C96.0788 212.06 96.7753 212.349 97.2892 212.863C97.803 213.377 98.0924 214.073 98.094 214.8Z" fill="#263238"/>
<path d="M116.568 214.8C116.569 215.344 116.409 215.876 116.107 216.329C115.806 216.782 115.377 217.135 114.874 217.344C114.372 217.552 113.819 217.607 113.285 217.501C112.752 217.396 112.262 217.134 111.877 216.749C111.492 216.364 111.23 215.874 111.125 215.341C111.019 214.807 111.074 214.254 111.282 213.752C111.491 213.249 111.844 212.82 112.297 212.519C112.75 212.217 113.282 212.057 113.826 212.058C114.553 212.06 115.249 212.349 115.763 212.863C116.277 213.377 116.566 214.073 116.568 214.8Z" fill="#263238"/>
<path d="M105.576 276.336H49.326L57.528 219.036H97.3741L105.576 276.336Z" fill="#92E3A9"/>
<path d="M97.3741 219.036L91.1221 276.336H105.576L97.3741 219.036Z" fill="#92E3A9"/>
<path opacity="0.1" d="M97.3741 219.036L91.1221 276.336H105.576L97.3741 219.036Z" fill="black"/>
<path d="M68.7541 222.99L66.9901 222.618C66.9901 222.57 68.0221 217.752 69.1141 212.898C70.3141 207.642 75.4561 205.23 79.7701 205.926C83.0041 206.448 86.5861 208.968 86.0461 214.326C85.4461 220.092 85.0261 222.81 85.0081 222.924L83.2081 222.636C83.2081 222.606 83.6521 219.852 84.2281 214.152C84.6421 210.012 82.0321 208.092 79.4281 207.672C75.9421 207.108 71.7601 209.046 70.8121 213.264C69.7801 218.136 68.7601 222.942 68.7541 222.99Z" fill="#263238"/>
<path d="M91.884 275.898C93.042 275.076 94.236 274.32 95.436 273.57C96.636 272.82 97.836 272.1 99.084 271.404L99.252 271.308L99.402 271.422C100.356 272.136 101.304 272.85 102.228 273.6C103.152 274.35 104.082 275.094 104.97 275.892C103.95 275.292 102.954 274.62 101.97 273.948C100.986 273.276 100.014 272.592 99.054 271.896H99.378C98.178 272.61 96.924 273.3 95.676 273.972C94.428 274.644 93.174 275.31 91.884 275.898Z" fill="white"/>
<path d="M99.228 271.656C98.982 268.002 98.796 264.348 98.628 260.694C98.46 257.04 98.334 253.38 98.184 249.72C98.034 246.06 97.956 242.406 97.878 238.746L97.776 233.256C97.776 231.426 97.728 229.596 97.734 227.766C97.866 229.566 97.956 231.42 98.07 233.244L98.34 238.728C98.514 242.388 98.634 246.042 98.784 249.702C98.934 253.362 99.012 257.016 99.084 260.676C99.156 264.336 99.228 267.996 99.228 271.656Z" fill="white"/>
<path d="M70.2601 222.804C70.2601 223.279 70.1193 223.743 69.8556 224.137C69.5919 224.532 69.2171 224.84 68.7785 225.021C68.34 225.203 67.8574 225.25 67.3919 225.158C66.9263 225.065 66.4987 224.837 66.163 224.501C65.8274 224.165 65.5988 223.738 65.5062 223.272C65.4136 222.807 65.4611 222.324 65.6428 221.886C65.8244 221.447 66.132 221.072 66.5267 220.808C66.9214 220.545 67.3854 220.404 67.8601 220.404C68.4966 220.404 69.1071 220.657 69.5571 221.107C70.0072 221.557 70.2601 222.167 70.2601 222.804Z" fill="#263238"/>
<path d="M86.3281 222.804C86.3281 223.279 86.1873 223.743 85.9236 224.137C85.6599 224.532 85.2851 224.84 84.8465 225.021C84.408 225.203 83.9254 225.25 83.4599 225.158C82.9943 225.065 82.5667 224.837 82.231 224.501C81.8954 224.165 81.6668 223.738 81.5742 223.272C81.4816 222.807 81.5291 222.324 81.7108 221.886C81.8924 221.447 82.2 221.072 82.5947 220.808C82.9894 220.545 83.4534 220.404 83.9281 220.404C84.5646 220.404 85.175 220.657 85.6251 221.107C86.0752 221.557 86.3281 222.167 86.3281 222.804Z" fill="#263238"/>
</svg>
